<svg height="48" id="svg2994" width="48" xmlns="http://www.w3.org/2000/svg" xmlns:xlink="http://www.w3.org/1999/xlink">
<defs id="defs3">
<linearGradient id="linearGradient5060">
<stop id="stop5062" offset="0"/>
<stop id="stop5064" offset="1" style="stop-opacity:0"/>
</linearGradient>
<linearGradient id="linearGradient5048">
<stop id="stop5050" offset="0" style="stop-opacity:0"/>
<stop id="stop5056" offset=".5"/>
<stop id="stop5052" offset="1" style="stop-opacity:0"/>
</linearGradient>
<linearGradient id="linearGradient4762">
<stop id="stop4764" offset="0" style="stop-opacity:.124;stop-color:#fff"/>
<stop id="stop4768" offset=".103" style="stop-color:#fff"/>
<stop id="stop4766" offset="1" style="stop-opacity:0;stop-color:#fff"/>
</linearGradient>
<linearGradient id="linearGradient4741">
<stop id="stop4743" offset="0" style="stop-color:#dcdcda"/>
<stop id="stop4745" offset="1" style="stop-color:#bab9b7"/>
</linearGradient>
<linearGradient id="linearGradient4733">
<stop id="stop4735" offset="0" style="stop-opacity:.237"/>
<stop id="stop4737" offset="1" style="stop-opacity:0"/>
</linearGradient>
<linearGradient id="linearGradient4698">
<stop id="stop4700" offset="0" style="stop-color:#fffffd"/>
<stop id="stop4706" offset=".5" style="stop-color:#bbbbb9"/>
<stop id="stop4702" offset="1"/>
</linearGradient>
<linearGradient id="linearGradient4688">
<stop id="stop4690" offset="0" style="stop-color:#666"/>
<stop id="stop4692" offset="1" style="stop-opacity:0"/>
</linearGradient>
<linearGradient id="linearGradient4680">
<stop id="stop4682" offset="0" style="stop-color:#f7f6f5"/>
<stop id="stop4684" offset="1" style="stop-opacity:0;stop-color:#f7f6f5"/>
</linearGradient>
<linearGradient id="linearGradient4668">
<stop id="stop4670" offset="0" style="stop-color:#8e8d87"/>
<stop id="stop4676" offset=".276" style="stop-color:#cbc9c1"/>
<stop id="stop4672" offset="1" style="stop-color:#8e8d87"/>
</linearGradient>
<linearGradient id="linearGradient259">
<stop id="stop260" offset="0" style="stop-color:#e0e0e0"/>
<stop id="stop4886" offset=".405" style="stop-color:#fff"/>
<stop id="stop4884" offset=".534" style="stop-color:#cdcdcd"/>
<stop id="stop261" offset="1" style="stop-color:#494949"/>
</linearGradient>
<linearGradient id="linearGradient15662">
<stop id="stop15664" offset="0" style="stop-opacity:0;stop-color:#fff"/>
<stop id="stop15666" offset="1" style="stop-color:#f8f8f8"/>
</linearGradient>
<linearGradient gradientTransform="matrix(2.77439,0,0,1.96971,-1892.179,-872.8854)" gradientUnits="userSpaceOnUse" id="linearGradient5027" x1="302.8571" x2="302.8571" xlink:href="#linearGradient5048" y1="366.6479" y2="609.5051"/>
<linearGradient gradientTransform="matrix(2.77209,0,0,.36074,.61872,2.88388)" gradientUnits="userSpaceOnUse" id="linearGradient1447" x1="9.8698" x2="9.9128" xlink:href="#linearGradient4733" y1="57.2276" y2="72.0643"/>
<linearGradient gradientTransform="matrix(2.36984,0,0,.42197,0,2)" gradientUnits="userSpaceOnUse" id="linearGradient1451" x1="10.3382" x2="10.3382" xlink:href="#linearGradient4680" y1="64.6523" y2="54.1361"/>
<linearGradient gradientTransform="matrix(2.36984,0,0,.42197,0,2)" gradientUnits="userSpaceOnUse" id="linearGradient1453" x1="9.7317" x2="9.7053" xlink:href="#linearGradient4688" y1="70.725" y2="62.2825"/>
<linearGradient gradientTransform="matrix(1.19877,0,0,.85357,-.14309,2.03451)" gradientUnits="userSpaceOnUse" id="linearGradient1456" x1="20.7712" x2="20.7178" xlink:href="#linearGradient15662" y1="25.1403" y2="19.3375"/>
<linearGradient gradientTransform="matrix(.94494,0,0,1.07615,6.844577e-2,4.09318)" gradientUnits="userSpaceOnUse" id="linearGradient1459" x1="25.0567" x2="24.7897" xlink:href="#linearGradient259" y1="3.6785" y2="25.2473"/>
<linearGradient gradientTransform="matrix(1.49016,0,0,.66874,8.895132e-2,2)" gradientUnits="userSpaceOnUse" id="linearGradient1464" x1="15.388" x2="15.4878" xlink:href="#linearGradient4762" y1="32.5392" y2="58.8313"/>
<linearGradient gradientTransform="matrix(2.29182,0,0,.43427,8.855179e-2,2)" gradientUnits="userSpaceOnUse" id="linearGradient1468" x1="1.8456" x2="18.9721" xlink:href="#linearGradient4741" y1="88.2949" y2="88.2949"/>
<linearGradient gradientTransform="matrix(2.30272,0,0,.43792,0,.58403)" gradientUnits="userSpaceOnUse" id="linearGradient1471" x1="1.8456" x2="18.9721" xlink:href="#linearGradient4668" y1="88.2949" y2="88.2949"/>
<radialGradient cx="605.7143" cy="486.6479" fx="605.7143" fy="486.6479" gradientTransform="matrix(-2.77439,0,0,1.96971,112.7623,-872.8854)" gradientUnits="userSpaceOnUse" id="radialGradient5031" r="117.1429" xlink:href="#linearGradient5060"/>
<radialGradient cx="605.7143" cy="486.6479" fx="605.7143" fy="486.6479" gradientTransform="matrix(2.77439,0,0,1.96971,-1891.633,-872.8854)" gradientUnits="userSpaceOnUse" id="radialGradient5029" r="117.1429" xlink:href="#linearGradient5060"/>
<radialGradient cx="9.1295" cy="26.9256" fx="9.1295" fy="26.9256" gradientUnits="userSpaceOnUse" id="radialGradient1433" r="2.1227" xlink:href="#linearGradient4698"/>
</defs>
<g id="g5022" transform="matrix(2.411405e-2,0,0,1.929202e-2,45.48953,39.75228)">
<rect height="478.3572" id="rect4173" style="opacity:.402;fill:url(#linearGradient5027)" width="1339.6335" x="-1559.2523" y="-150.6969"/>
<path d="M-219.6188,-150.6804C-219.6188,-150.6804 -219.6188,327.6504 -219.6188,327.6504C-76.7446,328.5509 125.7815,220.4808 125.7814,88.4542C125.7814,-43.5723 -33.6554,-150.6804 -219.6188,-150.6804z" id="path5058" style="opacity:.402;fill:url(#radialGradient5029)"/>
<path d="M-1559.2523,-150.6804C-1559.2523,-150.6804 -1559.2523,327.6504 -1559.2523,327.6504C-1702.1265,328.5509 -1904.6525,220.4808 -1904.6525,88.4542C-1904.6525,-43.5723 -1745.2157,-150.6804 -1559.2523,-150.6804z" id="path5018" style="opacity:.402;fill:url(#radialGradient5031)"/>
</g>
<rect height="6.4916" id="rect4652" rx="1.7115" ry="1.7115" style="stroke:#595959;fill:url(#linearGradient1471)" width="38.4375" x="4.75" y="36.0042"/>
<path d="M7.1309,21.5L40.8706,21.5C41.2557,21.5 41.7476,21.7882 42.051,22.2239C42.3545,22.6597 43.7875,24.8339 44.1094,25.298C44.4314,25.762 44.5024,26.2019 44.5024,26.774L44.5024,38.851C44.5024,39.7645 43.7704,40.5 42.8612,40.5L5.1404,40.5C4.2311,40.5 3.4991,39.7645 3.4991,38.851L3.4991,26.774C3.4991,26.28 3.6003,25.5716 3.9455,25.1207C4.3812,24.5517 5.5499,22.5728 5.8581,22.1531C6.1664,21.7335 6.7324,21.5 7.1309,21.5z" id="rect4609" style="fill:url(#linearGradient1468);stroke:#676767"/>
<path d="M7.7053,21.9755C7.2073,21.9755 6.567,22.1073 6.3044,22.5112L4.4657,25.3397C4.1698,25.795 4.4994,26.8681 5.39,26.8681L42.6786,26.8681C43.8833,26.8681 43.8868,25.8581 43.6028,25.428L41.8517,22.7764C41.5342,22.2956 41.419,21.9755 40.6259,21.9755L7.7053,21.9755z" id="path4718" style="fill:#fbfbfb;fill-rule:evenodd"/>
<path d="M7.6003,22.4458L40.3747,22.4458C40.7397,22.4458 41.2062,22.7186 41.4939,23.1313C41.7816,23.5439 42.788,25.1609 43.0933,25.6004C43.3985,26.0398 43.5282,26.4563 43.5282,26.9982L43.5282,38.2793C43.5282,39.1444 43.3947,39.5284 42.5325,39.5284L5.5305,39.5284C4.6684,39.5284 4.4726,39.1444 4.4726,38.2793L4.4726,26.9982C4.4726,26.5303 4.6931,25.8595 5.0204,25.4325C5.4335,24.8937 6.1012,23.4616 6.3935,23.0642C6.6858,22.6668 7.2225,22.4458 7.6003,22.4458z" id="path4750" style="fill:none;stroke-width:.947;stroke:url(#linearGradient1464)"/>
<path d="M11.6818,4.4978L36.3138,4.4978C36.9641,4.4978 37.4875,5.0079 37.4875,5.6417L37.4875,24.3481L10.5081,24.3481L10.5081,5.6417C10.5081,5.0079 11.0315,4.4978 11.6818,4.4978z" id="rect15391" style="display:block;fill:url(#linearGradient1459);stroke-linecap:round;stroke:#898989"/>
<rect height="18.8364" id="rect15660" rx=".1768" ry=".1768" style="display:block;stroke-linejoin:round;fill:none;stroke-linecap:round;stroke:url(#linearGradient1456)" width="25.0006" x="11.4985" y="5.4992"/>
<rect height="5.1875" id="rect4678" rx="1.7115" style="stroke:url(#linearGradient1453);fill:url(#linearGradient1451)" width="33.75" x="6.875" y="27.375"/>
<path d="M10.8718 27.6265A1.2816 1.2816 0 1 1 8.3085,27.6265A1.2816 1.2816 0 1 1 10.8718 27.6265z" id="path4696" style="fill:url(#radialGradient1433)" transform="translate(0,2)"/>
<path d="M11.7437,25.4161L37.3062,25.4786C37.9937,25.4802 38.294,25.1076 38.2437,24.4786L38.1187,22.9161L39.9848,22.9161C40.7973,22.9161 40.975,23.1086 41.1723,23.4786L41.6723,24.4161C42.1991,25.4038 43.4835,26.3902 42.1705,26.3902C37.6678,26.3902 13.9937,26.0411 11.7437,25.4161z" id="path4731" style="opacity:.366;fill:url(#linearGradient1447);fill-rule:evenodd"/>
<path d="M42.9375,26.5L4.8125,26.5" id="path4760" style="stroke:#fff;stroke-linejoin:round;fill:none;stroke-linecap:round"/>
<g id="g4849" style="opacity:.436" transform="translate(0,2)">
<rect height="1" id="rect4831" style="fill-opacity:.292" width="19" x="14" y="5"/>
<rect height="1" id="rect4833" style="fill-opacity:.292" width="19" x="14" y="7"/>
<rect height="1" id="rect4835" style="fill-opacity:.292" width="19" x="14" y="9"/>
<rect height="1" id="rect4837" style="fill-opacity:.292" width="19" x="14" y="11"/>
<rect height="1" id="rect4839" style="fill-opacity:.292" width="11" x="14" y="13"/>
</g>
<path d="M21.0216,20.9894L27.9894,20.9894L27.9894,16.065L31,16.065L24.5538,8L17.4356,15.9869L21.0237,15.9869L21.0216,20.9894z" id="path8643" style="fill:#a7a7a7;fill-rule:evenodd"/>
</svg>
