<svg viewBox="0 0 48 48" xmlns="http://www.w3.org/2000/svg" xmlns:xlink="http://www.w3.org/1999/xlink">
<defs>
<linearGradient id="linearGradient5060">
<stop offset="0"/>
<stop offset="1" stop-opacity="0"/>
</linearGradient>
<linearGradient gradientUnits="userSpaceOnUse" id="linearGradient5027" x2="0" y1="-150.69536" y2="327.66289">
<stop offset="0" stop-opacity="0"/>
<stop offset=".5"/>
<stop offset="1" stop-opacity="0"/>
</linearGradient>
<linearGradient gradientUnits="userSpaceOnUse" id="linearGradient1529" x1="27.3663" x2="31.336" y1="26.5803" y2="30.5578">
<stop offset="0" stop-color="#8a8a8a"/>
<stop offset="1" stop-color="#484848"/>
</linearGradient>
<linearGradient gradientUnits="userSpaceOnUse" id="linearGradient1531" x1="33.93962" x2="37.35964" y1="36.4432" y2="32.65004">
<stop offset="0" stop-color="#7d7d7d"/>
<stop offset=".5" stop-color="#b1b1b1"/>
<stop offset="1" stop-color="#686868"/>
</linearGradient>
<linearGradient gradientUnits="userSpaceOnUse" id="linearGradient1533" x1="18.2927" x2="17.5009" y1="13.6021" y2="25.7435">
<stop offset="0" stop-color="#fff"/>
<stop offset=".5" stop-color="#fff" stop-opacity=".219"/>
<stop offset="1" stop-color="#fff"/>
</linearGradient>
<radialGradient cx="11.89795" cy="4.52564" gradientUnits="userSpaceOnUse" id="radialGradient15656" r="36.55384">
<stop offset="0" stop-color="#a3a3a3"/>
<stop offset="1" stop-color="#4c4c4c"/>
</radialGradient>
<radialGradient cx="32.60803" cy="37.20211" gradientUnits="userSpaceOnUse" id="radialGradient15658" r="83.24006">
<stop offset="0" stop-color="#fafafa"/>
<stop offset="1" stop-color="#bbb"/>
</radialGradient>
<radialGradient cx="11.23875" cy="8.15252" gradientUnits="userSpaceOnUse" id="radialGradient15668" r="36.94792">
<stop offset="0" stop-color="#fff"/>
<stop offset="1" stop-color="#f8f8f8"/>
</radialGradient>
<radialGradient cx="9.41245" cy="30.29617" gradientUnits="userSpaceOnUse" id="radialGradient2283" r="1.2073">
<stop offset="0" stop-color="#f0f0f0"/>
<stop offset="1" stop-color="#9a9a9a"/>
</radialGradient>
<radialGradient cx="9.41245" cy="18.81106" gradientUnits="userSpaceOnUse" id="radialGradient2285" r="1.20753">
<stop offset="0" stop-color="#f0f0f0"/>
<stop offset="1" stop-color="#9a9a9a"/>
</radialGradient>
<radialGradient cx="18.2409" cy="21.818" gradientUnits="userSpaceOnUse" id="radialGradient1537" r="8.3085">
<stop offset="0" stop-color="#729fcf" stop-opacity=".208"/>
<stop offset="1" stop-color="#729fcf" stop-opacity=".676"/>
</radialGradient>
<radialGradient cx="15.4144" cy="13.0784" gradientTransform="matrix(2.59296,-7.746900e-24,-5.714443e-24,2.2521,-25.05975,-18.94100)" gradientUnits="userSpaceOnUse" id="radialGradient1539" r="6.6562">
<stop offset="0" stop-color="#fff"/>
<stop offset="1" stop-color="#fff" stop-opacity=".248"/>
</radialGradient>
<radialGradient cx="605.7143" cy="486.6479" gradientTransform="matrix(-2.77439,0,0,1.96971,112.7623,-872.8854)" gradientUnits="userSpaceOnUse" id="radialGradient5031" r="117.1429" xlink:href="#linearGradient5060"/>
<radialGradient cx="605.7143" cy="486.6479" gradientTransform="matrix(2.77439,0,0,1.96971,-1891.633,-872.8854)" gradientUnits="userSpaceOnUse" id="radialGradient5029" r="117.1429" xlink:href="#linearGradient5060"/>
<radialGradient cx="24.13" cy="37.9679" gradientTransform="matrix(1,0,0,.23797,-8.821068e-16,28.93278)" gradientUnits="userSpaceOnUse" id="radialGradient1527" r="16.5286" xlink:href="#linearGradient5060"/>
</defs>
<g transform="matrix(2.165152e-2,0,0,1.485743e-2,43.0076,42.68539)">
<path d="m -1559.2523,-150.6969 h 1339.6335 v 478.3572 h -1339.6335 z" fill="url(#linearGradient5027)" opacity=".402"/>
<path d="m -219.6188,-150.6804 v 478.3308 c 142.8742,.9005 345.4003,-107.1696 345.4002,-239.1962 s -159.4368,-239.1346 -345.4002,-239.1346 z" fill="url(#radialGradient5029)" opacity=".402"/>
<path d="m -1559.2523,-150.6804 v 478.3308 c -142.8742,.9005 -345.4002,-107.1696 -345.4002,-239.1962 s 159.4368,-239.1346 345.4002,-239.1346 z" fill="url(#radialGradient5031)" opacity=".402"/>
</g>
<path d="m 7.7526,3.6464 h 32.577 a 1.149,1.149 0 0,1 1.149,1.149 v 38.6225 a 1.149,1.149 0 0,1 -1.149,1.149 h -32.577 a 1.149,1.149 0 0,1 -1.149,-1.149 v -38.6225 a 1.149,1.149 0 0,1 1.149,-1.149" display="block" fill="url(#radialGradient15658)" stroke="url(#radialGradient15656)" stroke-linecap="round" stroke-linejoin="round"/>
<path d="m 7.8151,4.5839 h 32.4779 a .149,.149 0 0,1 .149,.149 v 38.6484 a .149,.149 0 0,1 -.149,.149 h -32.4779 a .149,.149 0 0,1 -.149,-.149 v -38.6484 a .149,.149 0 0,1 .149,-.149" display="block" fill="none" stroke="url(#radialGradient15668)" stroke-linecap="round" stroke-linejoin="round"/>
<g transform="translate(.6464,-3.798933e-2)">
<g fill="#fff" stroke="#000" transform="matrix(.2297,0,0,.2297,4.96708,4.24497)">
<path d="m 23.428,113.07 c 0,1.973 -1.6,3.572 -3.573,3.572 s -3.573,-1.6 -3.573,-3.572 1.6,-3.573 3.573,-3.573 3.573,1.6 3.573,3.573 z" stroke="none"/>
<path d="m 23.428,63.07 c 0,1.973 -1.6,3.573 -3.573,3.573 s -3.573,-1.6 -3.573,-3.573 1.6,-3.573 3.573,-3.573 3.573,1.6 3.573,3.573 z" stroke="none"/>
</g>
<path d="m 9.995,29.9523 c 0,.4532 -.3675,.8205 -.8207,.8205 s -.8207,-.3675 -.8207,-.8205 .3675,-.8207 .8207,-.8207 .8207,.3675 .8207,.8207 z" fill="url(#radialGradient2283)"/>
<path d="m 9.995,18.4672 c 0,.4532 -.3675,.8207 -.8207,.8207 s -.8207,-.3675 -.8207,-.8207 .3675,-.8208 .8207,-.8208 .8207,.3676 .8207,.8208 z" fill="url(#radialGradient2285)"/>
</g>
<path d="m 11.5057,5.4943 v 37.9066" fill="none" stroke="#000" stroke-opacity=".018" stroke-width=".9886"/>
<path d="m 12.5,5.0205 v 38.0177" fill="none" stroke="#fff" stroke-opacity=".205"/>
<g transform="matrix(.90909,0,0,1,2.36363,0)">
<path d="m 15.1516,9 h 21.6968 a .1516,0.0654 0 0,1 .1516,.0654 v .8692 a .1516,0.0654 0 0,1 -.1516,.0654 h -21.6968 a .1516,0.0654 0 0,1 -.1516,-.0654 v -.8692 a .1516,0.0654 0 0,1 .1516,-.0654" display="block" fill="#9b9b9b" fill-opacity=".55"/>
<path d="m 15.1516,11 h 21.6968 a .1516,0.0654 0 0,1 .1516,.0654 v .8692 a .1516,0.0654 0 0,1 -.1516,.0654 h -21.6968 a .1516,0.0654 0 0,1 -.1516,-.0654 v -.8692 a .1516,0.0654 0 0,1 .1516,-.0654" display="block" fill="#9b9b9b" fill-opacity=".55"/>
<path d="m 15.1516,13 h 21.6968 a .1516,0.0654 0 0,1 .1516,.0654 v .8692 a .1516,0.0654 0 0,1 -.1516,.0654 h -21.6968 a .1516,0.0654 0 0,1 -.1516,-.0654 v -.8692 a .1516,0.0654 0 0,1 .1516,-.0654" display="block" fill="#9b9b9b" fill-opacity=".55"/>
<path d="m 15.1516,15 h 21.6968 a .1516,0.0654 0 0,1 .1516,.0654 v .8692 a .1516,0.0654 0 0,1 -.1516,.0654 h -21.6968 a .1516,0.0654 0 0,1 -.1516,-.0654 v -.8692 a .1516,0.0654 0 0,1 .1516,-.0654" display="block" fill="#9b9b9b" fill-opacity=".55"/>
<path d="m 15.1516,17 h 21.6968 a .1516,0.0654 0 0,1 .1516,.0654 v .8692 a .1516,0.0654 0 0,1 -.1516,.0654 h -21.6968 a .1516,0.0654 0 0,1 -.1516,-.0654 v -.8692 a .1516,0.0654 0 0,1 .1516,-.0654" display="block" fill="#9b9b9b" fill-opacity=".55"/>
<path d="m 15.1516,19 h 21.6968 a .1516,0.0654 0 0,1 .1516,.0654 v .8692 a .1516,0.0654 0 0,1 -.1516,.0654 h -21.6968 a .1516,0.0654 0 0,1 -.1516,-.0654 v -.8692 a .1516,0.0654 0 0,1 .1516,-.0654" display="block" fill="#9b9b9b" fill-opacity=".55"/>
<path d="m 15.1516,21 h 21.6968 a .1516,0.0654 0 0,1 .1516,.0654 v .8692 a .1516,0.0654 0 0,1 -.1516,.0654 h -21.6968 a .1516,0.0654 0 0,1 -.1516,-.0654 v -.8692 a .1516,0.0654 0 0,1 .1516,-.0654" display="block" fill="#9b9b9b" fill-opacity=".55"/>
<path d="m 15.1516,23 h 21.6968 a .1516,0.0654 0 0,1 .1516,.0654 v .8692 a .1516,0.0654 0 0,1 -.1516,.0654 h -21.6968 a .1516,0.0654 0 0,1 -.1516,-.0654 v -.8692 a .1516,0.0654 0 0,1 .1516,-.0654" display="block" fill="#9b9b9b" fill-opacity=".55"/>
<path d="m 15.0682,25 h 9.7636 a 0.0682,0.0654 0 0,1 .0682,.0654 v .8692 a 0.0682,0.0654 0 0,1 -.0682,.0654 h -9.7636 a 0.0682,0.0654 0 0,1 -.0682,-.0654 v -.8692 a 0.0682,0.0654 0 0,1 .0682,-.0654" display="block" fill="#9b9b9b" fill-opacity=".55"/>
<path d="m 15.1516,29 h 21.6968 a .1516,0.0654 0 0,1 .1516,.0654 v .8692 a .1516,0.0654 0 0,1 -.1516,.0654 h -21.6968 a .1516,0.0654 0 0,1 -.1516,-.0654 v -.8692 a .1516,0.0654 0 0,1 .1516,-.0654" display="block" fill="#9b9b9b" fill-opacity=".55"/>
<path d="m 15.1516,31 h 21.6968 a .1516,0.0654 0 0,1 .1516,.0654 v .8692 a .1516,0.0654 0 0,1 -.1516,.0654 h -21.6968 a .1516,0.0654 0 0,1 -.1516,-.0654 v -.8692 a .1516,0.0654 0 0,1 .1516,-.0654" display="block" fill="#9b9b9b" fill-opacity=".55"/>
<path d="m 15.1516,33 h 21.6968 a .1516,0.0654 0 0,1 .1516,.0654 v .8692 a .1516,0.0654 0 0,1 -.1516,.0654 h -21.6968 a .1516,0.0654 0 0,1 -.1516,-.0654 v -.8692 a .1516,0.0654 0 0,1 .1516,-.0654" display="block" fill="#9b9b9b" fill-opacity=".55"/>
<path d="m 15.1516,35 h 21.6968 a .1516,0.0654 0 0,1 .1516,.0654 v .8692 a .1516,0.0654 0 0,1 -.1516,.0654 h -21.6968 a .1516,0.0654 0 0,1 -.1516,-.0654 v -.8692 a .1516,0.0654 0 0,1 .1516,-.0654" display="block" fill="#9b9b9b" fill-opacity=".55"/>
<path d="m 15.1061,37 h 15.1878 a .1061,0.0654 0 0,1 .1061,.0654 v .8692 a .1061,0.0654 0 0,1 -.1061,.0654 h -15.1878 a .1061,0.0654 0 0,1 -.1061,-.0654 v -.8692 a .1061,0.0654 0 0,1 .1061,-.0654" display="block" fill="#9b9b9b" fill-opacity=".55"/>
</g>
<g transform="matrix(.66538,0,0,.66538,15.98645,17.90835)">
<path d="m 40.6586,37.9679 a 16.5286,3.9333 0 1,1 -33.0572,0 16.5286,3.9333 0 1,1 33.0572,0 z" fill="url(#radialGradient1527)" fill-rule="evenodd" opacity=".171" transform="matrix(1.44643,0,0,1.51999,-10.97453,-17.75168)"/>
<path d="m 18.6276,3.1436 c -8.1392,0 -14.7448,6.6056 -14.7448,14.7448 s 6.6056,14.7448 14.7448,14.7448 c 3.4795,0 6.551,-1.3844 9.0737,-3.4027 -.2054,1.0069 -.078,2.0354 .7561,2.7599 l 10.9641,9.5274 c 1.2334,1.0714 3.0875,.931 4.1588,-.3024 s .931,-3.0875 -.3024,-4.1588 l -10.9641,-9.5274 c -.6716,-.5833 -1.4929,-.756 -2.3063,-.6427 1.9867,-2.5125 3.3649,-5.5488 3.3649,-8.9981 0,-8.1392 -6.6057,-14.7448 -14.7448,-14.7448 z m -.0756,1.2261 c 7.6394,0 13.2917,4.789 13.2917,13.2918 0,8.6751 -5.8167,13.2918 -13.2917,13.2918 -7.303,0 -13.2918,-5.4781 -13.2918,-13.2918 0,-7.9841 5.8246,-13.2918 13.2918,-13.2918 z" fill="#dcdcdc" fill-rule="evenodd" stroke="url(#linearGradient1529)" stroke-linecap="round" stroke-miterlimit="10" stroke-width="3.0058"/>
<path d="m 18.6029,3.0804 c -8.1654,0 -14.7925,6.627 -14.7925,14.7924 s 6.6271,14.7925 14.7925,14.7925 c 3.4908,0 6.5722,-1.3889 9.1031,-3.4137 -.2061,1.0102 -.0783,2.042 .7585,2.7689 l 10.9996,9.5582 c 1.2374,1.0748 3.0974,.934 4.1722,-.3034 s .934,-3.0975 -.3034,-4.1723 l -10.9996,-9.5582 c -.6737,-.5851 -1.4977,-.7584 -2.3136,-.6448 1.9931,-2.5205 3.3757,-5.5667 3.3757,-9.0272 0,-8.1654 -6.6271,-14.7924 -14.7925,-14.7924 z m -.0759,3.186 c 6.2812,0 11.3789,5.0977 11.3789,11.3788 s -5.0977,11.3789 -11.3789,11.3789 -11.3788,-5.0977 -11.3788,-11.3789 5.0977,-11.3788 11.3788,-11.3788 z" fill="#dcdcdc" fill-rule="evenodd"/>
<path d="m 39.507,41.5777 c -.4787,-2.2732 1.3973,-4.8114 3.5841,-4.7884 l -10.7604,-9.2581 c -2.9448,-.0567 -4.2695,2.2726 -3.7768,4.5999 l 10.9531,9.4466 z" fill="url(#linearGradient1531)" fill-rule="evenodd"/>
<path d="m 28.5494,18.9202 a 11.0485,11.0485 0 1,1 -22.0971,0 11.0485,11.0485 0 1,1 22.0971,0 z" fill="none" stroke="url(#linearGradient1533)" stroke-linecap="round" stroke-miterlimit="10" stroke-width="1.2064" transform="matrix(1.24574,0,0,1.24574,-3.42535,-6.17703)"/>
<path d="m 43.5845,.1409 h 12.626 a 3.2112,2.2202 0 0,1 3.2112,2.2202 v .0001 a 3.2112,2.2202 0 0,1 -3.2112,2.2202 h -12.626 a 3.2112,2.2202 0 0,1 -3.2112,-2.2202 v -.0001 a 3.2112,2.2202 0 0,1 3.2112,-2.2202" fill="none" opacity=".433" stroke="#fff" stroke-linecap="round" stroke-miterlimit="10" stroke-width="1.503" transform="matrix(.75299,.65804,-.6489,.76087,0,0)"/>
<path d="m 25.8978,18.4783 a 8.3085,8.3085 0 1,1 -16.617,0 8.3085,8.3085 0 1,1 16.617,0 z" fill="url(#radialGradient1537)" fill-rule="evenodd" stroke="#3063a3" stroke-linecap="round" stroke-miterlimit="10" stroke-width="1.0746" transform="matrix(1.39861,0,0,1.39861,-6.22434,-8.29896)"/>
<path d="m 18.1569,7.3967 c -5.2076,0 -9.4245,4.217 -9.4245,9.4245 0,1.504 .4203,2.8878 1.0471,4.1499 1.2524,.4617 2.5828,.7757 3.9948,.7757 6.171,0 11.0993,-4.8616 11.4801,-10.9371 -1.731,-2.0455 -4.21,-3.413 -7.0975,-3.413 z" fill="url(#radialGradient1539)" fill-rule="evenodd" opacity=".834"/>
</g>
</svg>
