<svg viewBox="0 0 48 48" xmlns="http://www.w3.org/2000/svg" xmlns:xlink="http://www.w3.org/1999/xlink">
<defs>
<linearGradient id="linearGradient3260-0">
<stop offset="0" stop-color="#204a87"/>
<stop offset="1" stop-color="#204a87" stop-opacity="0"/>
</linearGradient>
<linearGradient gradientTransform="matrix(-.35355,.35355,-.35355,-.35355,42.97609,23.65197)" gradientUnits="userSpaceOnUse" id="linearGradient3473" x1="12.364" x2="18.227" xlink:href="#linearGradient3260-0" y1="11.3943" y2="17.5815"/>
<linearGradient gradientTransform="matrix(.35355,-.35355,.35355,.35355,5.02391,24.34803)" gradientUnits="userSpaceOnUse" id="linearGradient3482" x1="12.364" x2="18.227" xlink:href="#linearGradient3260-0" y1="11.3943" y2="17.5815"/>
<radialGradient cx="11.23875" cy="8.15252" gradientUnits="userSpaceOnUse" id="radialGradient3244" r="36.94792">
<stop offset="0" stop-color="#fff"/>
<stop offset="1" stop-color="#f8f8f8"/>
</radialGradient>
<radialGradient cx="32.60803" cy="37.20211" gradientUnits="userSpaceOnUse" id="radialGradient3247" r="83.24006">
<stop offset="0" stop-color="#fafafa"/>
<stop offset="1" stop-color="#bbb"/>
</radialGradient>
<radialGradient cx="11.89795" cy="4.52564" gradientUnits="userSpaceOnUse" id="radialGradient3249" r="36.55384">
<stop offset="0" stop-color="#a3a3a3"/>
<stop offset="1" stop-color="#4c4c4c"/>
</radialGradient>
</defs>
<g transform="translate(-.0411,-.1067)">
<path d="m7.7526,3.6464h32.577a1.149,1.149 0 0,1 1.149,1.149v38.6225a1.149,1.149 0 0,1 -1.149,1.149h-32.577a1.149,1.149 0 0,1 -1.149-1.149v-38.6225a1.149,1.149 0 0,1 1.149-1.149" display="block" fill="url(#radialGradient3247)" stroke="url(#radialGradient3249)" stroke-linecap="round" stroke-linejoin="round"/>
<path d="m7.8151,4.5839h32.4779a.149,.149 0 0,1 .149.149v38.6484a.149,.149 0 0,1 -.149.149h-32.4779a.149,.149 0 0,1 -.149-.149v-38.6484a.149,.149 0 0,1 .149-.149" display="block" fill="none" stroke="url(#radialGradient3244)" stroke-linecap="round" stroke-linejoin="round"/>
</g>
<path d="m8.913,23.9945 4.5962,4.5962v-2.8505l5.679.0221-.0221-3.5355h-5.6569v-2.8284l-4.5962,4.5962z" fill="url(#linearGradient3482)" fill-rule="evenodd"/>
<path d="m39.087,24.0055-4.5962-4.5962v2.8505l-5.679-.0221 .0221,3.5355h5.6569v2.8284l4.5962-4.5962z" fill="url(#linearGradient3473)" fill-rule="evenodd"/>
</svg>
