<svg xmlns="http://www.w3.org/2000/svg" xmlns:xlink="http://www.w3.org/1999/xlink" viewBox="0 0 48 48"><defs><linearGradient gradientUnits="userSpaceOnUse" y2="46.689" x2="12.854" y1="32.567" x1="13.04" gradientTransform="matrix(1.31749 0 0 .81626-.88-1.318)" id="6"><stop stop-color="#fff"/><stop offset="1" stop-color="#fff" stop-opacity="0"/></linearGradient><linearGradient id="5" gradientUnits="userSpaceOnUse" gradientTransform="matrix(1.51684 0 0 .70898-.88-1.318)" x1="6.23" y1="13.773" x2="9.898" y2="66.834"><stop stop-color="#fff" stop-opacity=".876"/><stop offset="1" stop-color="#fffffe" stop-opacity="0"/></linearGradient><linearGradient id="3" gradientUnits="userSpaceOnUse" gradientTransform="matrix(2.77439 0 0 1.96971-1892.18-872.89)" y1="366.65" x2="0" y2="609.51"><stop stop-opacity="0"/><stop offset=".5"/><stop offset="1" stop-opacity="0"/></linearGradient><linearGradient id="1"><stop/><stop offset="1" stop-opacity="0"/></linearGradient><linearGradient id="8" x1="22.18" y1="36.988" x2="22.07" y2="32.05" gradientUnits="userSpaceOnUse"><stop stop-color="#6194cb"/><stop offset="1" stop-color="#729fcf"/></linearGradient><linearGradient gradientUnits="userSpaceOnUse" y2="6.18" x2="15.515" y1="31.368" x1="18.11" id="7"><stop stop-color="#424242"/><stop offset="1" stop-color="#777"/></linearGradient><radialGradient id="4" gradientUnits="userSpaceOnUse" gradientTransform="matrix(1.05502-.02735.1777 1.19093-3.572-7.125)" cx="20.706" cy="37.518" r="30.905"><stop stop-color="#202020"/><stop offset="1" stop-color="#b9b9b9"/></radialGradient><radialGradient xlink:href="#1" id="2" gradientUnits="userSpaceOnUse" gradientTransform="matrix(2.77439 0 0 1.96971-1891.63-872.89)" cx="605.71" cy="486.65" r="117.14"/><radialGradient xlink:href="#1" id="0" gradientUnits="userSpaceOnUse" gradientTransform="matrix(-2.77439 0 0 1.96971 112.76-872.89)" cx="605.71" cy="486.65" r="117.14"/></defs><g transform="matrix(.02262 0 0 .02087 43.38 36.37)" color="#000"><path opacity=".402" fill="url(#3)" d="m-1559.25-150.7h1339.63v478.36h-1339.63z"/><path d="m-219.62-150.68c0 0 0 478.33 0 478.33 142.87.9 345.4-107.17 345.4-239.2 0-132.03-159.44-239.13-345.4-239.13" opacity=".402" fill="url(#2)"/><path d="m-1559.25-150.68c0 0 0 478.33 0 478.33-142.87.9-345.4-107.17-345.4-239.2 0-132.03 159.44-239.13 345.4-239.13" opacity=".402" fill="url(#0)"/></g><g stroke-linejoin="round" stroke-linecap="round"><path d="m4.522 38.687c.022.416.46.833.876.833h31.33c.416 0 .811-.416.789-.833l-.936-27.23c-.022-.416-.46-.833-.876-.833h-13.271c-.485 0-1.234-.316-1.402-1.107l-.611-2.893c-.155-.736-.882-1.038-1.299-1.038h-14.779c-.416 0-.811.416-.789.833l.971 32.26z" fill="url(#4)" stroke="url(#7)"/><g fill="#729fcf" stroke="#000" color="#000"><path d="m5.227 22.563h30.27" opacity=".114"/><path d="m5.04 18.563h30.447" opacity=".114"/><path d="m4.981 12.563h30.507" opacity=".114"/><path d="m5.386 32.563h30.11" opacity=".114"/><path d="m5.509 34.563h29.988" opacity=".114"/><path d="m5.04 16.563h30.447" opacity=".114"/><path d="m5.01 14.563h30.477" opacity=".114"/><path d="m4.922 10.563h15.281" opacity=".114"/><path d="m4.874 8.562h14.784" opacity=".114"/><path d="m5.325 28.563h30.17" opacity=".114"/><path d="m5.288 26.563h30.21" opacity=".114"/><path d="m5.227 24.563h30.27" opacity=".114"/><path d="m5.196 20.563h30.3" opacity=".114"/><path d="m5.325 30.563h30.17" opacity=".114"/><path d="m5.509 36.563h29.988" opacity=".114"/></g></g><path d="m6.068 38.864c.016.312-.181.52-.499.416-.318-.104-.537-.312-.553-.624l-.948-32.06c-.016-.312.165-.501.477-.501l14.422-.048c.312 0 .932.3 1.133 1.322l.573 2.816c-.427-.465-.419-.48-.638-1.157l-.406-1.259c-.219-.728-.698-.832-1.01-.832h-12.888c-.312 0-.509.208-.493.52l.938 31.515-.11-.104" opacity=".451" display="block" color="#000" fill="url(#5)"/><g fill="#fff" fill-opacity=".757"><path d="m42.42 8.515c.005-.097-.128-.247-.235-.247l-13.03-.002c0 0 .912.588 2.202.596l11.05.071c.011-.212.003-.256.011-.418" fill="#fff" fill-opacity=".508" transform="matrix(1.04076 0 .05449 1.04076-8.67 2.671)"/></g><g fill-opacity="1"><path d="m39.784 39.511c1.144-.044 1.963-1.096 2.047-2.321.792-11.549 1.659-21.232 1.659-21.232.072-.247-.168-.495-.48-.495h-34.37c0 0-1.85 21.867-1.85 21.867-.115.982-.466 1.805-1.55 2.184l34.545-.003z" display="block" color="#000" fill="url(#8)" stroke-linejoin="round" stroke="#3465a4"/><path d="m9.62 16.464l32.791.065-1.574 20c-.084 1.072-.451 1.428-1.873 1.428-1.872 0-28.678-.032-31.395-.032.234-.321.334-.989.335-1l1.715-20.458z" opacity=".466" fill="none" fill-rule="evenodd" stroke="url(#6)" stroke-linecap="round"/></g><path d="m9.62 16.223l-1.167 15.643c0 0 8.296-4.148 18.666-4.148 10.37 0 15.555-11.495 15.555-11.495h-33.05" fill="#fff" fill-rule="evenodd" fill-opacity=".089"/></svg>