<svg viewBox="0 0 48 48" xmlns="http://www.w3.org/2000/svg">
<defs>
<radialGradient cx="22.7523" cy="29.9006" gradientTransform="matrix(-1.15057,1.757515e-16,3.460315e-16,1.22347,54.74191,-2.46142)" gradientUnits="userSpaceOnUse" id="radialGradient1441" r="16.9562">
<stop offset="0" stop-color="#73d216"/>
<stop offset="1" stop-color="#4e9a06"/>
</radialGradient>
<radialGradient cx="24.8371" cy="36.4211" gradientTransform="matrix(1,0,0,.53672,4.441327e-15,16.87306)" gradientUnits="userSpaceOnUse" id="radialGradient8668" r="15.6447">
<stop offset="0"/>
<stop offset="1" stop-opacity="0"/>
</radialGradient>
<radialGradient cx="17.475" cy="1.4733" gradientTransform="matrix(2.04673,-3.749427e-16,2.853404e-16,1.55761,-19.71021,3.16659)" gradientUnits="userSpaceOnUse" id="radialGradient6058" r="17.1714">
<stop offset="0" stop-color="#fff"/>
<stop offset="1" stop-color="#fff" stop-opacity="0"/>
</radialGradient>
</defs>
<path d="m40.4819,36.4211a15.6447,8.3969 0 1,1 -31.2895,0 15.6447,8.3969 0 1,1 31.2895,0z" fill="url(#radialGradient8668)" fill-rule="evenodd" opacity=".299" transform="matrix(-1.27119,0,0,1.27119,56.54869,-13.15725)"/>
<path d="m2.5,6.5h5.9962v15.125l18.0038-15.0938 .0625,7.9688h12.9375v18.0312h-12.9375v7.9688l-18.0663-15.375v15.3731h-5.9962v-33.9981z" fill="url(#radialGradient1441)" fill-rule="evenodd" stroke="#3a7304" stroke-linecap="round" stroke-linejoin="round" stroke-miterlimit="10"/>
<path d="m7.4881,3.4905h32.0119v4.0095h-32.0119z" fill="none" opacity=".481" stroke="#fff" transform="matrix(0,1,1,0,0,0)"/>
<path d="m38.5199,15.4481v16.056h-12.9929v6.6528l-16.9957-14.2208 .0007-1.1715 17.0384-14.2646-.0221,7.0079 12.9716-.0598z" fill="none" opacity=".481" stroke="#fff" stroke-miterlimit="10"/>
<path d="m26.0664,7.5152-.0313,7.5252 12.9109-.0938 .0625,8.9783c-16.75-6.25-20.7585,5.4197-36.0085-.8303l.0166-16.098 4.8291-.0355 .0166,15.652 18.2041-15.0979z" fill="url(#radialGradient6058)" fill-rule="evenodd" opacity=".508"/>
</svg>
