<svg height="48" id="svg11300" width="48" xmlns="http://www.w3.org/2000/svg" xmlns:xlink="http://www.w3.org/1999/xlink">
<defs id="defs3">
<linearGradient id="linearGradient1428">
<stop id="stop1430" offset="0" style="stop-color:#73d216"/>
<stop id="stop1432" offset="1" style="stop-color:#4e9a06"/>
</linearGradient>
<linearGradient id="linearGradient8662">
<stop id="stop8664" offset="0"/>
<stop id="stop8666" offset="1" style="stop-opacity:0"/>
</linearGradient>
<linearGradient id="linearGradient8650">
<stop id="stop8652" offset="0" style="stop-color:#fff"/>
<stop id="stop8654" offset="1" style="stop-opacity:0;stop-color:#fff"/>
</linearGradient>
<radialGradient cx="22.5882" cy="34.4628" fx="22.5882" fy="34.4628" gradientTransform="matrix(.84302,1.871885e-16,-2.265228e-16,1.02017,4.41386,.60644)" gradientUnits="userSpaceOnUse" id="radialGradient1441" r="16.9562" xlink:href="#linearGradient1428"/>
<radialGradient cx="18.9683" cy="3.0045" fx="18.9683" fy="3.0045" gradientTransform="matrix(2.04673,-3.749427e-16,2.853404e-16,1.55761,-19.66321,2.38997)" gradientUnits="userSpaceOnUse" id="radialGradient8656" r="17.1714" xlink:href="#linearGradient8650"/>
<radialGradient cx="24.8371" cy="36.4211" fx="24.8371" fy="36.4211" gradientTransform="matrix(1,0,0,.53672,1.246400e-15,16.87306)" gradientUnits="userSpaceOnUse" id="radialGradient8668" r="15.6447" xlink:href="#linearGradient8662"/>
</defs>
<path d="M40.4819 36.4211A15.6447 8.3969 0 1 1 9.1924,36.4211A15.6447 8.3969 0 1 1 40.4819 36.4211z" id="path8660" style="opacity:.299;fill:url(#radialGradient8668);fill-rule:evenodd" transform="matrix(1.27119,0,0,1.27119,-9.61938,-12.27857)"/>
<path d="M45.5,6.5L39.5038,6.5L39.5038,21.625L21.5,6.5313L21.4375,14.5L8.5,14.5L8.5,32.4688L21.4375,32.4688L21.4375,40.5L39.5038,25.125L39.5038,40.4981L45.5,40.4981L45.5,6.5z" id="path18242" style="stroke-linejoin:round;fill:url(#radialGradient1441);stroke-linecap:round;stroke-miterlimit:10;stroke:#3a7304;fill-rule:evenodd"/>
<path d="M21.8172,7.1864L21.8172,15.1491L9,15.1491L9,24.0336C23.75,28.2836 28.1335,18.2033 44.8835,23.2033L44.8669,7.1053L40.0379,7.0698L40.0213,22.7219L21.8172,7.1864z" id="path8645" style="opacity:.508;fill:url(#radialGradient8656);fill-rule:evenodd"/>
<path d="M9.5,15.4481L9.5,31.3479L22.493,31.3479L22.493,38.1569L39.5199,23.6548L39.488,22.7646L22.4495,8.5L22.4716,15.3204L9.5,15.4481z" id="path8658" style="opacity:.481;fill:none;stroke-miterlimit:10;stroke:#fff"/>
<rect height="4.0095" id="rect2163" style="opacity:.481;fill:none;stroke:#fff" transform="matrix(0,1,-1,0,0,0)" width="32.0119" x="7.5" y="-44.5095"/>
</svg>
