<svg viewBox="0 0 48 48" xmlns="http://www.w3.org/2000/svg">
<defs>
<radialGradient cx="19.70114" cy="2.89694" gradientTransform="matrix(2.046729,-3.749427e-16,2.853404e-16,1.557610,-19.51799,3.452086)" gradientUnits="userSpaceOnUse" id="radialGradient8656" r="17.17141">
<stop offset="0" stop-color="#fff"/>
<stop offset="1" stop-color="#fff" stop-opacity="0"/>
</radialGradient>
<radialGradient cx="24.83713" cy="36.42113" gradientTransform="matrix(1.000000,.000000,.000000,.536723,2.511012e-15,16.87306)" gradientUnits="userSpaceOnUse" id="radialGradient8668" r="15.64474">
<stop offset="0"/>
<stop offset="1" stop-opacity="0"/>
</radialGradient>
<radialGradient cx="22.29164" cy="32.79751" gradientTransform="matrix(.843022,1.871885e-16,-2.265228e-16,1.020168,4.499298,1.381992)" gradientUnits="userSpaceOnUse" id="radialGradient2597" r="16.9562">
<stop offset="0" stop-color="#73d216"/>
<stop offset="1" stop-color="#4e9a06"/>
</radialGradient>
</defs>
<path d="m 40.48186,36.42113 a 15.64474,8.39689 0 1,1 -31.28947,0 15.64474,8.39689 0 1,1 31.28947,0 z" fill="url(#radialGradient8668)" fill-rule="evenodd" opacity=".299" transform="matrix(1.271186,.000000,.000000,1.271186,-8.119376,-15.10179)"/>
<path d="m 8.55419,15.51735 v 16.99442 h 12.98381 v 8.54504 l 19.95984,-16.90644 -20.07865,-17.02525 v 8.39753 l -12.865,-.0053 z" fill="url(#radialGradient2597)" fill-rule="evenodd" stroke="#3a7304" stroke-linecap="round" stroke-linejoin="round" stroke-miterlimit="10"/>
<path d="m 21.96239,8.2485 v 7.80648 h -12.81717 v 9.04071 c 17.75,2 16.63353,-7.45529 31.38353,-.95529 l -18.56636,-15.8919 z" fill="url(#radialGradient8656)" fill-rule="evenodd" opacity=".508"/>
<path d="m 9.5377,16.56189 v 14.98444 h 12.98537 v 7.39517 l 17.47801,-14.79569 -17.49397,-14.7804 v 7.20138 l -12.96941,-.0049 z" fill="none" opacity=".481" stroke="#fff" stroke-miterlimit="10"/>
</svg>
