<svg height="48" id="svg11300" version="1.0" width="48" xmlns="http://www.w3.org/2000/svg" xmlns:xlink="http://www.w3.org/1999/xlink">
<defs id="defs3">
<linearGradient id="linearGradient2591">
<stop id="stop2593" offset="0" style="stop-color:#73d216"/>
<stop id="stop2595" offset="1" style="stop-color:#4e9a06"/>
</linearGradient>
<linearGradient id="linearGradient8662">
<stop id="stop8664" offset="0"/>
<stop id="stop8666" offset="1" style="stop-opacity:0"/>
</linearGradient>
<linearGradient id="linearGradient8650">
<stop id="stop8652" offset="0" style="stop-color:#fff"/>
<stop id="stop8654" offset="1" style="stop-opacity:0;stop-color:#fff"/>
</linearGradient>
<radialGradient cx="19.70114" cy="2.89694" fx="19.70114" fy="2.89694" gradientTransform="matrix(2.046729,-3.749427e-16,2.853404e-16,1.557610,-19.51799,3.452086)" gradientUnits="userSpaceOnUse" id="radialGradient8656" r="17.17141" xlink:href="#linearGradient8650"/>
<radialGradient cx="24.83713" cy="36.42113" fx="24.83713" fy="36.42113" gradientTransform="matrix(1.000000,.000000,.000000,.536723,2.511012e-15,16.87306)" gradientUnits="userSpaceOnUse" id="radialGradient8668" r="15.64474" xlink:href="#linearGradient8662"/>
<radialGradient cx="22.29164" cy="32.79751" fx="22.29164" fy="32.79751" gradientTransform="matrix(.843022,1.871885e-16,-2.265228e-16,1.020168,4.499298,1.381992)" gradientUnits="userSpaceOnUse" id="radialGradient2597" r="16.9562" xlink:href="#linearGradient2591"/>
</defs>
<path d="M40.48186 36.42113A15.64474 8.39689 0 1 1 9.19239,36.42113A15.64474 8.39689 0 1 1 40.48186 36.42113z" id="path8660" style="opacity:.299;fill:url(#radialGradient8668);fill-rule:evenodd" transform="matrix(1.271186,.000000,.000000,1.271186,-8.119376,-15.10179)"/>
<path d="M8.55419,15.51735L8.55419,32.51177L21.538,32.51177L21.538,41.05681L41.49784,24.15037L21.41919,7.12512L21.41919,15.52265L8.55419,15.51735z" id="path8643" style="stroke-linejoin:round;fill:url(#radialGradient2597);stroke-linecap:round;stroke-miterlimit:10;stroke:#3a7304;fill-rule:evenodd"/>
<path d="M21.96239,8.2485L21.96239,16.05498L9.14522,16.05498L9.14522,25.09569C26.89522,27.09569 25.77875,17.6404 40.52875,24.1404L21.96239,8.2485z" id="path8645" style="opacity:.508;fill:url(#radialGradient8656);fill-rule:evenodd"/>
<path d="M9.5377,16.56189L9.5377,31.54633L22.52307,31.54633L22.52307,38.9415L40.00108,24.14581L22.50711,9.36541L22.50711,16.56679L9.5377,16.56189z" id="path8658" style="opacity:.481;fill:none;stroke-miterlimit:10;stroke:#fff"/>
</svg>
