<svg viewBox="0 0 48 48" xmlns="http://www.w3.org/2000/svg">
<defs>
<linearGradient gradientTransform="matrix(-1.17193,0,0,1.17193,54.14019,-1.4279)" gradientUnits="userSpaceOnUse" id="linearGradient2167" x1="22" x2="19.3771" y1="16.6423" y2="12.4482">
<stop offset="0" stop-color="#5187d6"/>
<stop offset="1" stop-color="#729fcf"/>
</linearGradient>
<linearGradient gradientTransform="matrix(-1.17193,0,0,1.17193,54.14019,-1.4279)" gradientUnits="userSpaceOnUse" id="linearGradient2193" x1="14.2962" x2="10.0223" y1="15.2306" y2="23.1051">
<stop offset="0" stop-color="#fff"/>
<stop offset="1" stop-color="#fff" stop-opacity="0"/>
</linearGradient>
<linearGradient gradientTransform="matrix(-1,0,0,1,49.46564,0)" gradientUnits="userSpaceOnUse" id="linearGradient2708" x1="12.1056" x2="6.1056" y1="24.5899" y2="29.8399">
<stop offset="0" stop-color="#3465a4"/>
<stop offset="1" stop-color="#3465a4" stop-opacity="0"/>
</linearGradient>
<radialGradient cx="24.8371" cy="36.4211" gradientTransform="matrix(1,0,0,.53672,0,16.87306)" gradientUnits="userSpaceOnUse" id="radialGradient8668" r="15.6447">
<stop offset="0"/>
<stop offset="1" stop-opacity="0"/>
</radialGradient>
</defs>
<path d="m40.4819,36.4211a15.6447,8.3969 0 1,1 -31.2895,0 15.6447,8.3969 0 1,1 31.2895,0z" fill="url(#radialGradient8668)" fill-rule="evenodd" opacity=".141" transform="matrix(-1.48974,0,0,-1.00125,61.73358,72.07115)"/>
<path d="m45.0735,35.164c1.3211-40.0258-33.7087-33.3692-32.5367-12.5675h-9.3754l14.6491,11.7193 15.235-11.7193h-9.6684c-.586-14.0631 21.4326-18.49 21.6964,12.5675z" display="block" fill="url(#linearGradient2167)" stroke="url(#linearGradient2708)"/>
<path d="m45.1047,33.7767c-.0948-36.0754-33.6472-31.7355-31.4682-10.1977h-7.6045l11.8155,9.3988 12.2306-9.3988h-7.6794c-1.0388-18.0709 23.868-18.8732 22.706,10.1977z" display="block" fill="none" opacity=".418" stroke="url(#linearGradient2193)"/>
</svg>
