<svg height="48" id="svg11300" width="48" xmlns="http://www.w3.org/2000/svg" xmlns:xlink="http://www.w3.org/1999/xlink">
<defs id="defs3">
<linearGradient id="linearGradient2702">
<stop id="stop2704" offset="0" style="stop-color:#3a7304"/>
<stop id="stop2706" offset="1" style="stop-opacity:0;stop-color:#3a7304"/>
</linearGradient>
<linearGradient id="linearGradient2187">
<stop id="stop2189" offset="0" style="stop-color:#fff"/>
<stop id="stop2191" offset="1" style="stop-opacity:0;stop-color:#fff"/>
</linearGradient>
<linearGradient id="linearGradient2161">
<stop id="stop2163" offset="0" style="stop-color:#519e07"/>
<stop id="stop2165" offset="1" style="stop-color:#6cc813"/>
</linearGradient>
<linearGradient id="linearGradient8662">
<stop id="stop8664" offset="0"/>
<stop id="stop8666" offset="1" style="stop-opacity:0"/>
</linearGradient>
<linearGradient gradientTransform="matrix(1.17193,0,0,1.17193,-4.67455,-1.4279)" gradientUnits="userSpaceOnUse" id="linearGradient2167" x1="22" x2="19.3771" xlink:href="#linearGradient2161" y1="16.6423" y2="12.4482"/>
<linearGradient gradientTransform="matrix(1.17193,0,0,1.17193,-4.67455,-1.4279)" gradientUnits="userSpaceOnUse" id="linearGradient2193" x1="14.2962" x2="10.0223" xlink:href="#linearGradient2187" y1="15.2306" y2="23.1051"/>
<linearGradient gradientUnits="userSpaceOnUse" id="linearGradient2708" x1="12.1056" x2="6.1056" xlink:href="#linearGradient2702" y1="24.5899" y2="29.8399"/>
<radialGradient cx="24.8371" cy="36.4211" fx="24.8371" fy="36.4211" gradientTransform="matrix(1,0,0,.53672,-1.160225e-14,16.87306)" gradientUnits="userSpaceOnUse" id="radialGradient8668" r="15.6447" xlink:href="#linearGradient8662"/>
</defs>
<path d="M40.4819 36.4211A15.6447 8.3969 0 1 1 9.1924,36.4211A15.6447 8.3969 0 1 1 40.4819 36.4211z" id="path8660" style="opacity:.141;fill:url(#radialGradient8668);fill-rule:evenodd" transform="matrix(1.48974,0,0,-1.00125,-12.26794,72.07115)"/>
<path d="M4.3921,35.164C3.071,-4.8618 38.1007,1.7949 36.9288,22.5966L46.3042,22.5966L31.6552,34.3158L16.4201,22.5966C16.4201,22.5966 26.0885,22.5966 26.0885,22.5966C26.6745,8.5335 4.6559,4.1066 4.3921,35.164z" id="path1432" style="display:block;fill:url(#linearGradient2167);stroke:url(#linearGradient2708)"/>
<path d="M4.3609,33.7767C4.4557,-2.2986 38.0082,2.0412 35.8292,23.579L43.4336,23.579L31.6181,32.9779L19.3875,23.579C19.3875,23.579 27.0669,23.579 27.0669,23.579C28.1057,5.5081 3.1989,4.7059 4.3609,33.7767z" id="path2177" style="display:block;opacity:.418;fill:none;stroke:url(#linearGradient2193)"/>
</svg>
