<svg viewBox="0 0 48 48" xmlns="http://www.w3.org/2000/svg">
<defs>
<radialGradient cx="32.60803" cy="37.20211" gradientUnits="userSpaceOnUse" id="radialGradient3247-0" r="83.24006">
<stop offset="0" stop-color="#fafafa"/>
<stop offset="1" stop-color="#bbb"/>
</radialGradient>
<radialGradient cx="11.89795" cy="4.52564" gradientUnits="userSpaceOnUse" id="radialGradient3249-7" r="36.55384">
<stop offset="0" stop-color="#a3a3a3"/>
<stop offset="1" stop-color="#4c4c4c"/>
</radialGradient>
<radialGradient cx="11.23875" cy="8.15252" gradientUnits="userSpaceOnUse" id="radialGradient3732" r="36.94792">
<stop offset="0" stop-color="#fff"/>
<stop offset="1" stop-color="#f8f8f8"/>
</radialGradient>
</defs>
<g transform="translate(-.0411,-.1067)">
<path d="m 7.7526,3.6464 h 32.577 a 1.149,1.149 0 0,1 1.149,1.149 v 38.6225 a 1.149,1.149 0 0,1 -1.149,1.149 h -32.577 a 1.149,1.149 0 0,1 -1.149,-1.149 v -38.6225 a 1.149,1.149 0 0,1 1.149,-1.149" display="block" fill="url(#radialGradient3247-0)" stroke="url(#radialGradient3249-7)" stroke-linecap="round" stroke-linejoin="round"/>
<path d="m 7.8151,4.5839 h 32.4779 a .149,.149 0 0,1 .149,.149 v 38.6484 a .149,.149 0 0,1 -.149,.149 h -32.4779 a .149,.149 0 0,1 -.149,-.149 v -38.6484 a .149,.149 0 0,1 .149,-.149" display="block" fill="none" stroke="url(#radialGradient3732)" stroke-linecap="round" stroke-linejoin="round"/>
</g>
</svg>
