<svg height="48" id="svg6361" width="48" xmlns="http://www.w3.org/2000/svg" xmlns:xlink="http://www.w3.org/1999/xlink">
<defs id="defs3">
<linearGradient id="linearGradient2256">
<stop id="stop2258" offset="0" style="stop-color:#ff0202"/>
<stop id="stop2260" offset="1" style="stop-color:#ff9b9b"/>
</linearGradient>
<linearGradient id="linearGradient2248">
<stop id="stop2250" offset="0" style="stop-color:#fff"/>
<stop id="stop2252" offset="1" style="stop-opacity:0;stop-color:#fff"/>
</linearGradient>
<linearGradient id="linearGradient9647">
<stop id="stop9649" offset="0" style="stop-color:#fff"/>
<stop id="stop9651" offset="1" style="stop-color:#dbdbdb"/>
</linearGradient>
<linearGradient id="linearGradient21644">
<stop id="stop21646" offset="0"/>
<stop id="stop21648" offset="1" style="stop-opacity:0"/>
</linearGradient>
<linearGradient id="linearGradient4981">
<stop id="stop4983" offset="0" style="stop-color:#c00"/>
<stop id="stop4985" offset="1" style="stop-color:#b30000"/>
</linearGradient>
<linearGradient id="linearGradient11780">
<stop id="stop11782" offset="0" style="stop-color:#ff8b8b"/>
<stop id="stop11784" offset="1" style="stop-color:#ec1b1b"/>
</linearGradient>
<linearGradient gradientTransform="translate(0,-2)" gradientUnits="userSpaceOnUse" id="linearGradient2057" x1="15.737" x2="53.5701" xlink:href="#linearGradient11780" y1="12.5036" y2="47.3743"/>
<linearGradient gradientTransform="translate(0,-2)" gradientUnits="userSpaceOnUse" id="linearGradient4987" x1="23.996" x2="41.0478" xlink:href="#linearGradient4981" y1="20.1053" y2="37.9598"/>
<linearGradient gradientTransform="translate(0,-2)" gradientUnits="userSpaceOnUse" id="linearGradient2262" x1="21.75" x2="24.3023" xlink:href="#linearGradient2256" y1="15.8023" y2="35.0523"/>
<radialGradient cx="25.125" cy="36.75" fx="25.125" fy="36.75" gradientTransform="matrix(1,0,0,.59524,-2.300678e-15,14.87500)" gradientUnits="userSpaceOnUse" id="radialGradient21650" r="15.75" xlink:href="#linearGradient21644"/>
<radialGradient cx="24.3023" cy="33.3023" fx="24.3023" fy="33.3023" gradientTransform="matrix(1.69398,-5.775714e-16,5.775714e-16,1.69398,-16.86529,-25.11111)" gradientUnits="userSpaceOnUse" id="radialGradient2239" r="12.3023" xlink:href="#linearGradient9647"/>
<radialGradient cx="16.75" cy="10.6663" fx="16.75" fy="10.6663" gradientTransform="matrix(4.15496,-2.979206e-24,3.255657e-24,3.19872,-52.84553,-23.50921)" gradientUnits="userSpaceOnUse" id="radialGradient2254" r="21.25" xlink:href="#linearGradient2248"/>
</defs>
<path d="M40.875 36.75A15.75 9.375 0 1 1 9.375,36.75A15.75 9.375 0 1 1 40.875 36.75z" id="path21642" style="opacity:.631;fill:url(#radialGradient21650);fill-rule:evenodd" transform="matrix(1.1738,0,0,.6,-5.26587,19.57500)"/>
<path d="M15.591,.4919L32.6763,.4919L45.4976,13.5864L45.4976,31.48L32.849,43.4969L15.4186,43.4969L2.4944,30.6583L2.4944,13.4641L15.591,.4919z" id="path9480" style="stroke:#860000;fill:url(#linearGradient4987);fill-rule:evenodd"/>
<path d="M16.0207,1.5003L32.2486,1.5003L44.4965,13.9227L44.4965,31.037L32.6385,42.4878L15.8703,42.4878L3.5091,30.2087L3.5091,13.8456L16.0207,1.5003z" id="path9482" style="stroke:url(#linearGradient2057);opacity:.813;fill:none"/>
<path d="M15.6875,.75L2.75,13.5625L2.75,30.5625L5.6875,33.4688C22.45,33.5263 22.1647,20.4501 45.25,21.5938L45.25,13.6875L32.5625,.75L15.6875,.75z" id="path2241" style="opacity:.29;fill:url(#radialGradient2254);fill-rule:evenodd"/>
<path d="M16.7672,10.5L12.5,14.7672L20.0351,22.3023L12.5,29.8373L16.7672,34.1045L24.3023,26.5694L31.8373,34.1045L36.1045,29.8373L28.5694,22.3023L36.1045,14.7672L31.8373,10.5L24.3023,18.0351L16.7672,10.5z" id="path2787" style="stroke:url(#linearGradient2262);stroke-linejoin:round;fill:url(#radialGradient2239);stroke-linecap:round;fill-rule:evenodd"/>
</svg>
