<?xml version="1.0" encoding="UTF-8" standalone="no"?>
<!-- Created with Inkscape (http://www.inkscape.org/) -->

<svg
   xmlns:dc="http://purl.org/dc/elements/1.1/"
   xmlns:cc="http://creativecommons.org/ns#"
   xmlns:rdf="http://www.w3.org/1999/02/22-rdf-syntax-ns#"
   xmlns:svg="http://www.w3.org/2000/svg"
   xmlns="http://www.w3.org/2000/svg"
   xmlns:xlink="http://www.w3.org/1999/xlink"
   xmlns:sodipodi="http://sodipodi.sourceforge.net/DTD/sodipodi-0.dtd"
   xmlns:inkscape="http://www.inkscape.org/namespaces/inkscape"
   inkscape:export-ydpi="240.00000"
   inkscape:export-xdpi="240.00000"
   inkscape:export-filename="/home/jimmac/gfx/novell/pdes/trunk/docs/BIGmime-text.png"
   sodipodi:docname="qpdfview.svg"
   inkscape:version="0.48.2 r9819"
   sodipodi:version="0.32"
   id="svg249"
   height="48.000000px"
   width="48.000000px"
   inkscape:output_extension="org.inkscape.output.svg.inkscape"
   version="1.1">
  <defs
     id="defs3">
    <inkscape:perspective
       sodipodi:type="inkscape:persp3d"
       inkscape:vp_x="0 : 24 : 1"
       inkscape:vp_y="0 : 1000 : 0"
       inkscape:vp_z="48 : 24 : 1"
       inkscape:persp3d-origin="24 : 16 : 1"
       id="perspective91" />
    <linearGradient
       id="linearGradient5048">
      <stop
         style="stop-color:black;stop-opacity:0;"
         offset="0"
         id="stop5050" />
      <stop
         id="stop5056"
         offset="0.5"
         style="stop-color:black;stop-opacity:1;" />
      <stop
         style="stop-color:black;stop-opacity:0;"
         offset="1"
         id="stop5052" />
    </linearGradient>
    <linearGradient
       id="linearGradient7648"
       gradientUnits="userSpaceOnUse"
       x1="21.9326"
       y1="24.6274"
       x2="21.9326"
       y2="7.1091"
       style="stroke-dasharray:none;stroke-miterlimit:4.0000000;stroke-width:1.2166667">
      <stop
         offset="0"
         style="stop-color:#8595bc;stop-opacity:1;"
         id="stop7650" />
      <stop
         offset="1"
         style="stop-color:#041a3b;stop-opacity:1;"
         id="stop7652" />
    </linearGradient>
    <linearGradient
       inkscape:collect="always"
       xlink:href="#linearGradient7648"
       id="linearGradient7671"
       gradientUnits="userSpaceOnUse"
       gradientTransform="matrix(1.098989,0,0,-0.797757,-1.953865,37.324)"
       x1="21.9326"
       y1="24.627399"
       x2="21.9326"
       y2="7.1090999" />
    <linearGradient
       inkscape:collect="always"
       id="linearGradient4542">
      <stop
         style="stop-color:#000000;stop-opacity:1;"
         offset="0"
         id="stop4544" />
      <stop
         style="stop-color:#000000;stop-opacity:0;"
         offset="1"
         id="stop4546" />
    </linearGradient>
    <linearGradient
       id="linearGradient15662">
      <stop
         id="stop15664"
         offset="0.0000000"
         style="stop-color:#ffffff;stop-opacity:1.0000000;" />
      <stop
         id="stop15666"
         offset="1.0000000"
         style="stop-color:#f8f8f8;stop-opacity:1.0000000;" />
    </linearGradient>
    <radialGradient
       id="aigrd3"
       cx="20.8921"
       cy="64.5679"
       r="5.257"
       fx="20.8921"
       fy="64.5679"
       gradientUnits="userSpaceOnUse">
      <stop
         offset="0"
         style="stop-color:#F0F0F0"
         id="stop15573" />
      <stop
         offset="1.0000000"
         style="stop-color:#9a9a9a;stop-opacity:1.0000000;"
         id="stop15575" />
    </radialGradient>
    <radialGradient
       id="aigrd2"
       cx="20.8921"
       cy="114.5684"
       r="5.256"
       fx="20.8921"
       fy="114.5684"
       gradientUnits="userSpaceOnUse">
      <stop
         offset="0"
         style="stop-color:#F0F0F0"
         id="stop15566" />
      <stop
         offset="1.0000000"
         style="stop-color:#9a9a9a;stop-opacity:1.0000000;"
         id="stop15568" />
    </radialGradient>
    <linearGradient
       id="linearGradient269">
      <stop
         id="stop270"
         offset="0.0000000"
         style="stop-color:#a3a3a3;stop-opacity:1.0000000;" />
      <stop
         id="stop271"
         offset="1.0000000"
         style="stop-color:#4c4c4c;stop-opacity:1.0000000;" />
    </linearGradient>
    <linearGradient
       id="linearGradient259">
      <stop
         id="stop260"
         offset="0.0000000"
         style="stop-color:#fafafa;stop-opacity:1.0000000;" />
      <stop
         id="stop261"
         offset="1.0000000"
         style="stop-color:#bbbbbb;stop-opacity:1.0000000;" />
    </linearGradient>
    <radialGradient
       inkscape:collect="always"
       xlink:href="#linearGradient269"
       id="radialGradient15656"
       gradientUnits="userSpaceOnUse"
       gradientTransform="matrix(0.968273,0.000000,0.000000,1.032767,3.353553,0.646447)"
       cx="8.8244190"
       cy="3.7561285"
       fx="8.8244190"
       fy="3.7561285"
       r="37.751713" />
    <radialGradient
       inkscape:collect="always"
       xlink:href="#linearGradient259"
       id="radialGradient15658"
       gradientUnits="userSpaceOnUse"
       gradientTransform="scale(0.960493,1.041132)"
       cx="33.966679"
       cy="35.736916"
       fx="33.966679"
       fy="35.736916"
       r="86.708450" />
    <radialGradient
       inkscape:collect="always"
       xlink:href="#linearGradient15662"
       id="radialGradient15668"
       gradientUnits="userSpaceOnUse"
       gradientTransform="matrix(0.968273,0.000000,0.000000,1.032767,3.353553,0.646447)"
       cx="8.1435566"
       cy="7.2678967"
       fx="8.1435566"
       fy="7.2678967"
       r="38.158695" />
    <radialGradient
       r="5.256"
       fy="114.5684"
       fx="20.8921"
       cy="114.5684"
       cx="20.8921"
       gradientTransform="matrix(0.229703,0.000000,0.000000,0.229703,4.613529,3.979808)"
       gradientUnits="userSpaceOnUse"
       id="radialGradient2283"
       xlink:href="#aigrd2"
       inkscape:collect="always" />
    <radialGradient
       r="5.257"
       fy="64.5679"
       fx="20.8921"
       cy="64.5679"
       cx="20.8921"
       gradientTransform="matrix(0.229703,0.000000,0.000000,0.229703,4.613529,3.979808)"
       gradientUnits="userSpaceOnUse"
       id="radialGradient2285"
       xlink:href="#aigrd3"
       inkscape:collect="always" />
    <radialGradient
       inkscape:collect="always"
       xlink:href="#linearGradient4542"
       id="radialGradient4548"
       cx="24.306795"
       cy="42.07798"
       fx="24.306795"
       fy="42.07798"
       r="15.821514"
       gradientTransform="matrix(1.000000,0.000000,0.000000,0.284916,0.000000,30.08928)"
       gradientUnits="userSpaceOnUse" />
    <linearGradient
       gradientUnits="userSpaceOnUse"
       y2="30.557772"
       x2="31.335964"
       y1="26.580296"
       x1="27.366341"
       id="linearGradient2852"
       xlink:href="#linearGradient2846"
       inkscape:collect="always" />
    <linearGradient
       id="linearGradient2846">
      <stop
         id="stop2848"
         offset="0.0000000"
         style="stop-color:#8a8a8a;stop-opacity:1.0000000;" />
      <stop
         id="stop2850"
         offset="1.0000000"
         style="stop-color:#484848;stop-opacity:1.0000000;" />
    </linearGradient>
    <linearGradient
       inkscape:collect="always"
       xlink:href="#linearGradient4440"
       id="linearGradient4446"
       x1="30.65625"
       y1="34"
       x2="33.21875"
       y2="31.0625"
       gradientUnits="userSpaceOnUse"
       gradientTransform="matrix(1.334593,0,0,1.291292,-6.973842,-7.460658)" />
    <linearGradient
       id="linearGradient4440">
      <stop
         style="stop-color:#7d7d7d;stop-opacity:1;"
         offset="0"
         id="stop4442" />
      <stop
         id="stop4448"
         offset="0.50000000"
         style="stop-color:#b1b1b1;stop-opacity:1.0000000;" />
      <stop
         style="stop-color:#686868;stop-opacity:1.0000000;"
         offset="1.0000000"
         id="stop4444" />
    </linearGradient>
    <linearGradient
       gradientUnits="userSpaceOnUse"
       y2="25.743469"
       x2="17.500893"
       y1="13.602121"
       x1="18.292673"
       id="linearGradient2372"
       xlink:href="#linearGradient2366"
       inkscape:collect="always" />
    <linearGradient
       id="linearGradient2366">
      <stop
         id="stop2368"
         offset="0"
         style="stop-color:#ffffff;stop-opacity:1;" />
      <stop
         style="stop-color:#ffffff;stop-opacity:0.21904762;"
         offset="0.50000000"
         id="stop2374" />
      <stop
         id="stop2370"
         offset="1.0000000"
         style="stop-color:#ffffff;stop-opacity:1.0000000;" />
    </linearGradient>
    <radialGradient
       inkscape:collect="always"
       xlink:href="#linearGradient4454"
       id="radialGradient4460"
       cx="18.240929"
       cy="21.817987"
       fx="18.240929"
       fy="21.817987"
       r="8.3085051"
       gradientUnits="userSpaceOnUse" />
    <linearGradient
       id="linearGradient4454">
      <stop
         style="stop-color:#729fcf;stop-opacity:0.20784314;"
         offset="0.0000000"
         id="stop4456" />
      <stop
         style="stop-color:#729fcf;stop-opacity:0.67619050;"
         offset="1.0000000"
         id="stop4458" />
    </linearGradient>
    <radialGradient
       inkscape:collect="always"
       xlink:href="#linearGradient4467"
       id="radialGradient4473"
       cx="15.414371"
       cy="13.078408"
       fx="15.414371"
       fy="13.078408"
       r="6.65625"
       gradientTransform="matrix(2.592963,0,0,2.252104,-25.05975,-18.941)"
       gradientUnits="userSpaceOnUse" />
    <linearGradient
       id="linearGradient4467">
      <stop
         style="stop-color:#ffffff;stop-opacity:1;"
         offset="0"
         id="stop4469" />
      <stop
         style="stop-color:#ffffff;stop-opacity:0.24761905;"
         offset="1.0000000"
         id="stop4471" />
    </linearGradient>
    <radialGradient
       r="6.65625"
       fy="13.078408"
       fx="15.414371"
       cy="13.078408"
       cx="15.414371"
       gradientTransform="matrix(2.592963,0,0,2.252104,-25.05975,-18.941)"
       gradientUnits="userSpaceOnUse"
       id="radialGradient3501"
       xlink:href="#linearGradient4467"
       inkscape:collect="always" />
    <linearGradient
       inkscape:collect="always"
       xlink:href="#linearGradient5048-1"
       id="linearGradient5027"
       gradientUnits="userSpaceOnUse"
       gradientTransform="matrix(2.774389,0,0,1.969706,-1892.179,-872.8854)"
       x1="302.85715"
       y1="366.64789"
       x2="302.85715"
       y2="609.50507" />
    <linearGradient
       id="linearGradient5048-1">
      <stop
         style="stop-color:black;stop-opacity:0;"
         offset="0"
         id="stop5050-8" />
      <stop
         id="stop5056-7"
         offset="0.5"
         style="stop-color:black;stop-opacity:1;" />
      <stop
         style="stop-color:black;stop-opacity:0;"
         offset="1"
         id="stop5052-9" />
    </linearGradient>
    <radialGradient
       inkscape:collect="always"
       xlink:href="#linearGradient5060-2"
       id="radialGradient5029"
       gradientUnits="userSpaceOnUse"
       gradientTransform="matrix(2.774389,0,0,1.969706,-1891.633,-872.8854)"
       cx="605.71429"
       cy="486.64789"
       fx="605.71429"
       fy="486.64789"
       r="117.14286" />
    <linearGradient
       inkscape:collect="always"
       id="linearGradient5060-2">
      <stop
         style="stop-color:black;stop-opacity:1;"
         offset="0"
         id="stop5062-0" />
      <stop
         style="stop-color:black;stop-opacity:0;"
         offset="1"
         id="stop5064-2" />
    </linearGradient>
    <radialGradient
       inkscape:collect="always"
       xlink:href="#linearGradient5060-2"
       id="radialGradient5031"
       gradientUnits="userSpaceOnUse"
       gradientTransform="matrix(-2.774389,0,0,1.969706,112.7623,-872.8854)"
       cx="605.71429"
       cy="486.64789"
       fx="605.71429"
       fy="486.64789"
       r="117.14286" />
    <linearGradient
       y2="88.29493"
       x2="18.972126"
       y1="88.29493"
       x1="1.845643"
       gradientTransform="matrix(2.30272,0,0,0.437918,0,0.584034)"
       gradientUnits="userSpaceOnUse"
       id="linearGradient1471"
       xlink:href="#linearGradient4668"
       inkscape:collect="always" />
    <linearGradient
       id="linearGradient4668">
      <stop
         id="stop4670"
         offset="0"
         style="stop-color:#8e8d87;stop-opacity:1;" />
      <stop
         style="stop-color:#cbc9c1;stop-opacity:1.0000000;"
         offset="0.27586207"
         id="stop4676" />
      <stop
         id="stop4672"
         offset="1.0000000"
         style="stop-color:#8e8d87;stop-opacity:1.0000000;" />
    </linearGradient>
    <linearGradient
       y2="88.29493"
       x2="18.972126"
       y1="88.29493"
       x1="1.845643"
       gradientTransform="matrix(2.291824,0,0,0.434269,0.08855179,2)"
       gradientUnits="userSpaceOnUse"
       id="linearGradient1468"
       xlink:href="#linearGradient4741"
       inkscape:collect="always" />
    <linearGradient
       id="linearGradient4741">
      <stop
         id="stop4743"
         offset="0.0000000"
         style="stop-color:#dcdcda;stop-opacity:1.0000000;" />
      <stop
         id="stop4745"
         offset="1.0000000"
         style="stop-color:#bab9b7;stop-opacity:1.0000000;" />
    </linearGradient>
    <linearGradient
       y2="58.831264"
       x2="15.487823"
       y1="32.539238"
       x1="15.387969"
       gradientTransform="matrix(1.490161,0,0,0.668741,0.08895132,2)"
       gradientUnits="userSpaceOnUse"
       id="linearGradient1464"
       xlink:href="#linearGradient4762"
       inkscape:collect="always" />
    <linearGradient
       id="linearGradient4762">
      <stop
         style="stop-color:#ffffff;stop-opacity:0.12371134;"
         offset="0.0000000"
         id="stop4764" />
      <stop
         id="stop4768"
         offset="0.10344828"
         style="stop-color:#ffffff;stop-opacity:1.0000000;" />
      <stop
         style="stop-color:#ffffff;stop-opacity:0;"
         offset="1"
         id="stop4766" />
    </linearGradient>
    <linearGradient
       y2="25.247311"
       x2="24.789707"
       y1="3.6785457"
       x1="25.056711"
       gradientTransform="matrix(0.944939,0,0,1.076147,0.06844577,4.093177)"
       gradientUnits="userSpaceOnUse"
       id="linearGradient1459"
       xlink:href="#linearGradient259-3"
       inkscape:collect="always" />
    <linearGradient
       id="linearGradient259-3">
      <stop
         id="stop260-7"
         offset="0.0000000"
         style="stop-color:#e0e0e0;stop-opacity:1.0000000;" />
      <stop
         style="stop-color:#ffffff;stop-opacity:1.0000000;"
         offset="0.40546969"
         id="stop4886" />
      <stop
         style="stop-color:#cdcdcd;stop-opacity:1.0000000;"
         offset="0.53448278"
         id="stop4884" />
      <stop
         id="stop261-5"
         offset="1.0000000"
         style="stop-color:#494949;stop-opacity:1.0000000;" />
    </linearGradient>
    <linearGradient
       y2="19.337463"
       x2="20.7178"
       y1="25.140253"
       x1="20.771229"
       gradientTransform="matrix(1.198769,0,0,0.853565,-0.143086,2.034513)"
       gradientUnits="userSpaceOnUse"
       id="linearGradient1456"
       xlink:href="#linearGradient15662-9"
       inkscape:collect="always" />
    <linearGradient
       id="linearGradient15662-9">
      <stop
         id="stop15664-2"
         offset="0.0000000"
         style="stop-color:#ffffff;stop-opacity:0.0000000;" />
      <stop
         id="stop15666-2"
         offset="1.0000000"
         style="stop-color:#f8f8f8;stop-opacity:1.0000000;" />
    </linearGradient>
    <linearGradient
       y2="54.136139"
       x2="10.338233"
       y1="64.65226"
       x1="10.338233"
       gradientTransform="matrix(2.369844,0,0,0.421969,0,2)"
       gradientUnits="userSpaceOnUse"
       id="linearGradient1451"
       xlink:href="#linearGradient4680"
       inkscape:collect="always" />
    <linearGradient
       id="linearGradient4680"
       inkscape:collect="always">
      <stop
         id="stop4682"
         offset="0"
         style="stop-color:#f7f6f5;stop-opacity:1;" />
      <stop
         id="stop4684"
         offset="1"
         style="stop-color:#f7f6f5;stop-opacity:0;" />
    </linearGradient>
    <linearGradient
       y2="62.282467"
       x2="9.7052784"
       y1="70.724976"
       x1="9.7316532"
       gradientTransform="matrix(2.369844,0,0,0.421969,0,2)"
       gradientUnits="userSpaceOnUse"
       id="linearGradient1453"
       xlink:href="#linearGradient4688"
       inkscape:collect="always" />
    <linearGradient
       id="linearGradient4688">
      <stop
         id="stop4690"
         offset="0.0000000"
         style="stop-color:#666666;stop-opacity:1.0000000;" />
      <stop
         id="stop4692"
         offset="1"
         style="stop-color:#000000;stop-opacity:0;" />
    </linearGradient>
    <radialGradient
       r="2.1227016"
       fy="26.925594"
       fx="9.129549"
       cy="26.925594"
       cx="9.129549"
       gradientUnits="userSpaceOnUse"
       id="radialGradient1433"
       xlink:href="#linearGradient4698"
       inkscape:collect="always" />
    <linearGradient
       id="linearGradient4698">
      <stop
         id="stop4700"
         offset="0.0000000"
         style="stop-color:#fffffd;stop-opacity:1.0000000;" />
      <stop
         style="stop-color:#bbbbb9;stop-opacity:1.0000000;"
         offset="0.50000000"
         id="stop4706" />
      <stop
         id="stop4702"
         offset="1.0000000"
         style="stop-color:#000000;stop-opacity:1.0000000;" />
    </linearGradient>
    <linearGradient
       y2="72.064316"
       x2="9.9128132"
       y1="57.22765"
       x1="9.8698082"
       gradientTransform="matrix(2.772086,0,0,0.360739,0.618718,2.883883)"
       gradientUnits="userSpaceOnUse"
       id="linearGradient1447"
       xlink:href="#linearGradient4733"
       inkscape:collect="always" />
    <linearGradient
       id="linearGradient4733">
      <stop
         id="stop4735"
         offset="0.0000000"
         style="stop-color:#000000;stop-opacity:0.23711340;" />
      <stop
         id="stop4737"
         offset="1"
         style="stop-color:#000000;stop-opacity:0;" />
    </linearGradient>
  </defs>
  <sodipodi:namedview
     inkscape:window-y="31"
     inkscape:window-x="0"
     inkscape:window-height="997"
     inkscape:window-width="1680"
     inkscape:document-units="px"
     inkscape:grid-bbox="true"
     showgrid="false"
     inkscape:current-layer="layer6"
     inkscape:cy="22.427888"
     inkscape:cx="28.997363"
     inkscape:zoom="5.6568542"
     inkscape:pageshadow="2"
     inkscape:pageopacity="0.0"
     borderopacity="0.25490196"
     bordercolor="#666666"
     pagecolor="#ffffff"
     id="base"
     inkscape:showpageshadow="false"
     fill="#729fcf"
     inkscape:window-maximized="1" />
  <metadata
     id="metadata4">
    <rdf:RDF>
      <cc:Work
         rdf:about="">
        <dc:format>image/svg+xml</dc:format>
        <dc:type
           rdf:resource="http://purl.org/dc/dcmitype/StillImage" />
        <dc:title />
        <dc:subject>
          <rdf:Bag>
            <rdf:li>rich</rdf:li>
            <rdf:li>text</rdf:li>
            <rdf:li>document</rdf:li>
            <rdf:li>pdf</rdf:li>
            <rdf:li>openoffice</rdf:li>
            <rdf:li>word</rdf:li>
            <rdf:li>rtf</rdf:li>
          </rdf:Bag>
        </dc:subject>
        <cc:license
           rdf:resource="http://creativecommons.org/licenses/publicdomain/" />
        <dc:creator>
          <cc:Agent>
            <dc:title>Jakub Steiner</dc:title>
          </cc:Agent>
        </dc:creator>
        <dc:source>http://jimmac.musichall.cz</dc:source>
      </cc:Work>
      <cc:License
         rdf:about="http://creativecommons.org/licenses/publicdomain/">
        <cc:permits
           rdf:resource="http://creativecommons.org/ns#Reproduction" />
        <cc:permits
           rdf:resource="http://creativecommons.org/ns#Distribution" />
        <cc:permits
           rdf:resource="http://creativecommons.org/ns#DerivativeWorks" />
      </cc:License>
    </rdf:RDF>
  </metadata>
  <g
     style="display:inline"
     inkscape:groupmode="layer"
     inkscape:label="Base"
     id="layer1">
    <rect
       style="color:#000000;fill:url(#radialGradient15658);fill-opacity:1.0000000;fill-rule:nonzero;stroke:url(#radialGradient15656);stroke-width:1.0000000;stroke-linecap:round;stroke-linejoin:round;stroke-miterlimit:4.0000000;stroke-dashoffset:0.0000000;stroke-opacity:1.0000000;marker:none;marker-start:none;marker-mid:none;marker-end:none;visibility:visible;display:block;overflow:visible"
       id="rect15391"
       width="34.875000"
       height="40.920494"
       x="6.6035528"
       y="3.6464462"
       ry="1.1490486" />
    <rect
       style="color:#000000;fill:none;fill-opacity:1.0000000;fill-rule:nonzero;stroke:url(#radialGradient15668);stroke-width:1.0000000;stroke-linecap:round;stroke-linejoin:round;stroke-miterlimit:4.0000000;stroke-dashoffset:0.0000000;stroke-opacity:1.0000000;marker:none;marker-start:none;marker-mid:none;marker-end:none;visibility:visible;display:block;overflow:visible"
       id="rect15660"
       width="32.775887"
       height="38.946384"
       x="7.6660538"
       y="4.5839462"
       ry="0.14904857"
       rx="0.14904857" />
    <g
       transform="translate(0.646447,-3.798933e-2)"
       id="g2270">
      <g
         id="g1440"
         style="fill:#ffffff;fill-opacity:1.0000000;fill-rule:nonzero;stroke:#000000;stroke-miterlimit:4.0000000"
         transform="matrix(0.229703,0.000000,0.000000,0.229703,4.967081,4.244972)">
        <radialGradient
           id="radialGradient1442"
           cx="20.892099"
           cy="114.56840"
           r="5.2560000"
           fx="20.892099"
           fy="114.56840"
           gradientUnits="userSpaceOnUse">
          <stop
             offset="0"
             style="stop-color:#F0F0F0"
             id="stop1444" />
          <stop
             offset="1"
             style="stop-color:#474747"
             id="stop1446" />
        </radialGradient>
        <path
           style="stroke:none"
           d="M 23.428000,113.07000 C 23.428000,115.04300 21.828000,116.64200 19.855000,116.64200 C 17.881000,116.64200 16.282000,115.04200 16.282000,113.07000 C 16.282000,111.09600 17.882000,109.49700 19.855000,109.49700 C 21.828000,109.49700 23.428000,111.09700 23.428000,113.07000 z "
           id="path1448" />
        <radialGradient
           id="radialGradient1450"
           cx="20.892099"
           cy="64.567902"
           r="5.2570000"
           fx="20.892099"
           fy="64.567902"
           gradientUnits="userSpaceOnUse">
          <stop
             offset="0"
             style="stop-color:#F0F0F0"
             id="stop1452" />
          <stop
             offset="1"
             style="stop-color:#474747"
             id="stop1454" />
        </radialGradient>
        <path
           style="stroke:none"
           d="M 23.428000,63.070000 C 23.428000,65.043000 21.828000,66.643000 19.855000,66.643000 C 17.881000,66.643000 16.282000,65.043000 16.282000,63.070000 C 16.282000,61.096000 17.882000,59.497000 19.855000,59.497000 C 21.828000,59.497000 23.428000,61.097000 23.428000,63.070000 z "
           id="path1456" />
      </g>
      <path
         style="fill:url(#radialGradient2283);fill-rule:nonzero;stroke:none;stroke-miterlimit:4.0000000"
         d="M 9.9950109,29.952326 C 9.9950109,30.405530 9.6274861,30.772825 9.1742821,30.772825 C 8.7208483,30.772825 8.3535532,30.405301 8.3535532,29.952326 C 8.3535532,29.498892 8.7210780,29.131597 9.1742821,29.131597 C 9.6274861,29.131597 9.9950109,29.499122 9.9950109,29.952326 z "
         id="path15570" />
      <path
         style="fill:url(#radialGradient2285);fill-rule:nonzero;stroke:none;stroke-miterlimit:4.0000000"
         d="M 9.9950109,18.467176 C 9.9950109,18.920380 9.6274861,19.287905 9.1742821,19.287905 C 8.7208483,19.287905 8.3535532,18.920380 8.3535532,18.467176 C 8.3535532,18.013742 8.7210780,17.646447 9.1742821,17.646447 C 9.6274861,17.646447 9.9950109,18.013972 9.9950109,18.467176 z "
         id="path15577" />
    </g>
    <path
       style="fill:none;fill-opacity:0.75000000;fill-rule:evenodd;stroke:#000000;stroke-width:0.98855311;stroke-linecap:butt;stroke-linejoin:miter;stroke-miterlimit:4.0000000;stroke-opacity:0.017543854"
       d="M 11.505723,5.4942766 L 11.505723,43.400869"
       id="path15672"
       sodipodi:nodetypes="cc" />
    <path
       style="fill:none;fill-opacity:0.75000000;fill-rule:evenodd;stroke:#ffffff;stroke-width:1.0000000;stroke-linecap:butt;stroke-linejoin:miter;stroke-miterlimit:4.0000000;stroke-opacity:0.20467831"
       d="M 12.500000,5.0205154 L 12.500000,43.038228"
       id="path15674"
       sodipodi:nodetypes="cc" />
  </g>
  <g
     inkscape:groupmode="layer"
     id="layer5"
     inkscape:label="Text"
     style="display:inline">
    <rect
       ry="0.065390877"
       rx="0.13778631"
       y="35"
       x="15.999986"
       height="1"
       width="20.000006"
       id="rect15742"
       style="color:#000000;fill:#9b9b9b;fill-opacity:0.54970757;fill-rule:nonzero;stroke:none;stroke-width:1;stroke-linecap:round;stroke-linejoin:round;marker:none;marker-start:none;marker-mid:none;marker-end:none;stroke-miterlimit:4;stroke-dashoffset:0;stroke-opacity:0.08187136;visibility:visible;display:block;overflow:visible" />
    <rect
       ry="0.065390877"
       rx="0.13778631"
       y="31"
       x="15.999986"
       height="1"
       width="20.000006"
       id="rect15738"
       style="color:#000000;fill:#9b9b9b;fill-opacity:0.54970757;fill-rule:nonzero;stroke:none;stroke-width:1;stroke-linecap:round;stroke-linejoin:round;marker:none;marker-start:none;marker-mid:none;marker-end:none;stroke-miterlimit:4;stroke-dashoffset:0;stroke-opacity:0.08187136;visibility:visible;display:block;overflow:visible" />
    <rect
       ry="0.065390877"
       rx="0.13778631"
       y="33"
       x="15.999986"
       height="1"
       width="20.000006"
       id="rect15740"
       style="color:#000000;fill:#9b9b9b;fill-opacity:0.54970757;fill-rule:nonzero;stroke:none;stroke-width:1;stroke-linecap:round;stroke-linejoin:round;marker:none;marker-start:none;marker-mid:none;marker-end:none;stroke-miterlimit:4;stroke-dashoffset:0;stroke-opacity:0.08187136;visibility:visible;display:block;overflow:visible" />
    <rect
       ry="0.065390877"
       rx="0.096450485"
       y="37"
       x="15.999986"
       height="1"
       width="14.000014"
       id="rect15744"
       style="color:#000000;fill:#9b9b9b;fill-opacity:0.54970757;fill-rule:nonzero;stroke:none;stroke-width:1;stroke-linecap:round;stroke-linejoin:round;marker:none;marker-start:none;marker-mid:none;marker-end:none;stroke-miterlimit:4;stroke-dashoffset:0;stroke-opacity:0.08187136;visibility:visible;display:block;overflow:visible" />
    <g
       id="g5376"
       style="opacity:0.66477273">
      <g
         transform="matrix(0.608982,0,0,0.606219,12.8233,10.5572)"
         id="g7654">
        <path
           style="fill:url(#linearGradient7671);fill-opacity:1;fill-rule:nonzero;stroke:none;stroke-width:1.2166667;stroke-miterlimit:4"
           d="M 5.512695,30 L 39.643234,30 L 39.643234,19.627375 L 5.512695,19.627375 L 5.512695,30 z "
           id="path7644" />
        <path
           id="path16203"
           d="M 5.512695,5.6791358 L 39.643234,5.6791358 L 39.643234,19.627375 L 5.512695,19.627375 L 5.512695,5.6791358 z "
           style="fill:#729fcf;fill-rule:nonzero;stroke:none;stroke-width:1.2166667;stroke-miterlimit:4;fill-opacity:1" />
        <g
           transform="matrix(1.189217,0,0,1.189217,-3.525355,-6.535408)"
           style="fill-rule:nonzero;stroke:#000000;stroke-width:2.00241709;stroke-miterlimit:4"
           id="g16205">
          <g
             id="g16207">
            <path
               id="path16209"
               d="M 18.4,15.4 C 18.4,17.6 16.6,19.5 14.3,19.5 C 12.1,19.5 10.2,17.7 10.2,15.4 C 10.2,13.2 12,11.3 14.3,11.3 C 16.5,11.3 18.4,13.1 18.4,15.4 z "
               style="opacity:0.04999994;fill:#e8f52f;stroke:none" />
            <path
               id="path16211"
               d="M 18,15.4 C 18,17.4 16.4,19.1 14.3,19.1 C 12.3,19.1 10.6,17.5 10.6,15.4 C 10.6,13.4 12.2,11.7 14.3,11.7 C 16.3,11.7 18,13.3 18,15.4 L 18,15.4 z "
               style="opacity:0.20829994;fill:#ecf751;stroke:none" />
            <path
               id="path16213"
               d="M 17.6,15.4 C 17.6,17.2 16.1,18.7 14.3,18.7 C 12.5,18.7 11,17.2 11,15.4 C 11,13.6 12.5,12.1 14.3,12.1 C 16.1,12.1 17.6,13.6 17.6,15.4 L 17.6,15.4 z "
               style="opacity:0.36669994;fill:#f0f972;stroke:none" />
            <path
               id="path16215"
               d="M 17.2,15.4 C 17.2,17 15.9,18.3 14.3,18.3 C 12.7,18.3 11.4,17 11.4,15.4 C 11.4,13.8 12.7,12.5 14.3,12.5 C 15.9,12.5 17.2,13.8 17.2,15.4 z "
               style="opacity:0.525;fill:#f4fa95;stroke:none" />
            <path
               id="path16217"
               d="M 16.8,15.4 C 16.8,16.8 15.7,17.9 14.3,17.9 C 12.9,17.9 11.8,16.8 11.8,15.4 C 11.8,14 12.9,12.9 14.3,12.9 C 15.7,12.9 16.8,14 16.8,15.4 L 16.8,15.4 z "
               style="opacity:0.6833;fill:#f7fcb7;stroke:none" />
            <path
               id="path16219"
               d="M 16.4,15.4 C 16.4,16.6 15.4,17.5 14.3,17.5 C 13.2,17.5 12.2,16.5 12.2,15.4 C 12.2,14.3 13.2,13.3 14.3,13.3 C 15.4,13.3 16.4,14.3 16.4,15.4 z "
               style="opacity:0.8417;fill:#fbfddb;stroke:none" />
            <path
               id="path16221"
               d="M 16,15.4 C 16,16.4 15.2,17.2 14.2,17.2 C 13.2,17.2 12.4,16.4 12.4,15.4 C 12.4,14.4 13.2,13.6 14.2,13.6 C 15.2,13.6 16,14.4 16,15.4 L 16,15.4 z "
               style="fill:#ffffff;stroke:none" />
          </g>
        </g>
        <path
           id="path16223"
           d="M 25.015859,21.649044 L 33.697148,21.649044 L 35.362052,22.124732 L 32.507931,22.124732 C 32.507931,22.124732 35.362052,22.362574 36.789115,24.146401 C 38.216174,25.811305 35.12421,27.832976 35.12421,27.832976 C 35.12421,27.832976 35.12421,27.832976 35.12421,27.832976 C 35.005288,27.47621 34.291756,24.622087 32.864696,23.43287 C 31.794399,22.481496 30.605182,22.243652 30.605182,22.243652 L 25.015859,22.243652 L 25.015859,21.767966 L 25.015859,21.649044 z "
           style="opacity:0.3;fill-rule:nonzero;stroke:none;stroke-width:1.2166667;stroke-miterlimit:4" />
        <path
           id="path16225"
           d="M 30.724106,22.362574 L 25.729391,22.362574 L 35.005288,27.595131 L 30.724106,22.362574 L 30.724106,22.362574 z "
           style="opacity:0.3;fill-rule:nonzero;stroke:none;stroke-width:1.2166667;stroke-miterlimit:4" />
        <path
           id="path16227"
           d="M 25.015859,21.767966 L 33.697148,21.767966 L 35.005288,20.935513 L 32.151167,20.935513 C 32.151167,20.935513 34.767443,20.459827 35.12421,17.486782 C 35.480973,14.513739 31.080869,11.183931 31.080869,11.183931 C 31.080869,11.183931 31.080869,11.183931 31.080869,11.302853 C 31.19979,12.016383 32.389007,17.011096 31.556557,18.913846 C 31.19979,20.578747 30.129495,20.935513 30.129495,20.935513 L 24.659094,20.935513 L 24.896938,21.767966 L 25.015859,21.767966 z "
           style="fill:#515151;fill-rule:nonzero;stroke:none;stroke-width:1.2166667;stroke-miterlimit:4" />
        <path
           id="path16229"
           d="M 30.248418,20.459827 L 25.253704,20.459827 L 31.19979,11.421773 L 30.248418,20.459827 z "
           style="fill:#515151;fill-rule:nonzero;stroke:none;stroke-width:1.2166667;stroke-miterlimit:4" />
      </g>
      <rect
         y="14.485752"
         x="16.508501"
         height="13.997463"
         width="19.995502"
         id="rect8163"
         style="opacity:1;color:#000000;fill:none;fill-opacity:1;fill-rule:nonzero;stroke:#9e9e9e;stroke-width:0.99999863;stroke-linecap:butt;stroke-linejoin:miter;marker:none;marker-start:none;marker-mid:none;marker-end:none;stroke-miterlimit:4;stroke-dasharray:none;stroke-dashoffset:0;stroke-opacity:1;visibility:visible;display:inline;overflow:visible" />
    </g>
    <rect
       style="color:#000000;fill:#9b9b9b;fill-opacity:0.54970757;fill-rule:nonzero;stroke:none;stroke-width:1;stroke-linecap:round;stroke-linejoin:round;marker:none;marker-start:none;marker-mid:none;marker-end:none;stroke-miterlimit:4;stroke-dashoffset:0;stroke-opacity:0.08187136;visibility:visible;display:block;overflow:visible"
       id="rect1768"
       width="20.000006"
       height="1"
       x="15.999986"
       y="9"
       rx="0.13778631"
       ry="0.065390877" />
    <rect
       style="color:#000000;fill:#9b9b9b;fill-opacity:0.54970757;fill-rule:nonzero;stroke:none;stroke-width:1;stroke-linecap:round;stroke-linejoin:round;marker:none;marker-start:none;marker-mid:none;marker-end:none;stroke-miterlimit:4;stroke-dashoffset:0;stroke-opacity:0.08187136;visibility:visible;display:block;overflow:visible"
       id="rect1770"
       width="14.000014"
       height="1"
       x="15.999986"
       y="11"
       rx="0.096450485"
       ry="0.065390877" />
  </g>
  <g
     inkscape:groupmode="layer"
     id="layer6"
     inkscape:label="Shadow">
    <g
       transform="matrix(0.36211141,0,0,0.36211141,11.442265,31.058381)"
       id="g3589">
      <g
         transform="matrix(0.02411405,0,0,0.01929202,45.48953,39.75228)"
         id="g5022"
         style="display:inline">
        <rect
           style="opacity:0.40206185;color:#000000;fill:url(#linearGradient5027);fill-opacity:1;fill-rule:nonzero;stroke:none;stroke-width:1;marker:none;visibility:visible;display:inline;overflow:visible"
           id="rect4173"
           width="1339.6335"
           height="478.35718"
           x="-1559.2523"
           y="-150.69685" />
        <path
           inkscape:connector-curvature="0"
           style="opacity:0.40206185;color:#000000;fill:url(#radialGradient5029);fill-opacity:1;fill-rule:nonzero;stroke:none;stroke-width:1;marker:none;visibility:visible;display:inline;overflow:visible"
           d="m -219.61876,-150.68038 c 0,0 0,478.33079 0,478.33079 142.874166,0.90045 345.40022,-107.16966 345.40014,-239.196175 0,-132.026537 -159.436816,-239.134595 -345.40014,-239.134615 z"
           id="path5058"
           sodipodi:nodetypes="cccc" />
        <path
           inkscape:connector-curvature="0"
           sodipodi:nodetypes="cccc"
           id="path5018"
           d="m -1559.2523,-150.68038 c 0,0 0,478.33079 0,478.33079 -142.8742,0.90045 -345.4002,-107.16966 -345.4002,-239.196175 0,-132.026537 159.4368,-239.134595 345.4002,-239.134615 z"
           style="opacity:0.40206185;color:#000000;fill:url(#radialGradient5031);fill-opacity:1;fill-rule:nonzero;stroke:none;stroke-width:1;marker:none;visibility:visible;display:inline;overflow:visible" />
      </g>
      <rect
         style="fill:url(#linearGradient1471);fill-opacity:1;stroke:#595959;stroke-width:0.99999982;stroke-miterlimit:4;stroke-opacity:1"
         id="rect4652"
         width="38.4375"
         height="6.4915943"
         x="4.75"
         y="36.004189"
         rx="1.7115483"
         ry="1.7115477" />
      <path
         inkscape:connector-curvature="0"
         style="color:#000000;fill:url(#linearGradient1468);fill-opacity:1;fill-rule:nonzero;stroke:#676767;stroke-width:1.00000036;stroke-linecap:butt;stroke-linejoin:miter;stroke-miterlimit:4;stroke-opacity:1;stroke-dashoffset:0;marker:none;visibility:visible;display:inline;overflow:visible"
         d="m 7.1308961,21.5 33.7397189,0 c 0.385046,0 0.877033,0.288155 1.180434,0.723919 0.303402,0.435765 1.736469,2.610021 2.058399,3.074045 0.32193,0.464023 0.392949,0.903888 0.392949,1.476085 l 0,12.076902 c 0,0.913573 -0.731995,1.649049 -1.641245,1.649049 l -37.7207924,0 c -0.9092502,0 -1.6412458,-0.735476 -1.6412458,-1.649049 l 0,-12.076902 c 0,-0.494018 0.101166,-1.202408 0.4464064,-1.653331 0.4356464,-0.569005 1.6043462,-2.547948 1.9126074,-2.9676 C 6.1663887,21.733467 6.7324461,21.5 7.1308961,21.5 z"
         id="rect4609"
         sodipodi:nodetypes="cssssssssssss" />
      <path
         inkscape:connector-curvature="0"
         style="fill:#fbfbfb;fill-opacity:1;fill-rule:evenodd;stroke:none"
         d="m 7.705278,21.975532 c -0.497988,0 -1.1383089,0.131776 -1.4008793,0.535692 l -1.8386544,2.828427 c -0.2959833,0.455315 0.033626,1.52849 0.9242608,1.52849 l 37.2885479,0 c 1.204729,0 1.208247,-1.010068 0.924261,-1.440102 l -1.7511,-2.65165 c -0.31751,-0.4808 -0.432758,-0.800857 -1.225769,-0.800857 l -32.920667,0 z"
         id="path4718"
         sodipodi:nodetypes="cssssssss" />
      <path
         inkscape:connector-curvature="0"
         sodipodi:nodetypes="cssssssssssss"
         id="path4750"
         d="m 7.6002951,22.445756 32.7743629,0 c 0.365087,0 0.831575,0.272873 1.119251,0.685527 0.287676,0.412655 1.29414,2.029662 1.599384,2.469077 0.305243,0.439415 0.434866,0.855952 0.434866,1.397804 l 0,11.281097 c 0,0.865124 -0.133506,1.249095 -0.99563,1.249095 l -37.002023,0 c -0.8621232,0 -1.057913,-0.383971 -1.057913,-1.249095 l 0,-11.281097 c 0,-0.467819 0.2204889,-1.138641 0.5478352,-1.56565 0.4130667,-0.538829 1.080783,-1.970881 1.3730668,-2.368277 0.2922839,-0.397396 0.829002,-0.618481 1.2068001,-0.618481 z"
         style="color:#000000;fill:none;stroke:url(#linearGradient1464);stroke-width:0.94696701;stroke-linecap:butt;stroke-linejoin:miter;stroke-miterlimit:4;stroke-opacity:1;stroke-dashoffset:0;marker:none;visibility:visible;display:inline;overflow:visible" />
      <path
         inkscape:connector-curvature="0"
         style="color:#000000;fill:url(#linearGradient1459);fill-opacity:1;fill-rule:nonzero;stroke:#898989;stroke-width:1.00000012;stroke-linecap:round;stroke-linejoin:miter;stroke-miterlimit:4;stroke-opacity:1;stroke-dashoffset:0;marker:none;visibility:visible;display:block;overflow:visible"
         d="m 11.68177,4.4977642 24.632069,0 c 0.650233,0 1.173707,0.5101848 1.173707,1.143912 l 0,18.7064408 -26.979483,0 0,-18.7064408 c 0,-0.6337272 0.523473,-1.143912 1.173707,-1.143912 z"
         id="rect15391-8"
         sodipodi:nodetypes="ccccccc" />
      <rect
         rx="0.17677672"
         ry="0.17677675"
         y="5.4992466"
         x="11.498513"
         height="18.836374"
         width="25.000576"
         id="rect15660-9"
         style="color:#000000;fill:none;stroke:url(#linearGradient1456);stroke-width:1.00000024;stroke-linecap:round;stroke-linejoin:round;stroke-miterlimit:4;stroke-opacity:1;stroke-dashoffset:0;marker:none;visibility:visible;display:block;overflow:visible" />
      <rect
         style="fill:url(#linearGradient1451);fill-opacity:1;stroke:url(#linearGradient1453);stroke-width:1;stroke-miterlimit:4;stroke-opacity:1"
         id="rect4678"
         width="33.75"
         height="5.1875"
         x="6.875"
         y="27.375"
         rx="1.7115483"
         ry="1.7115483" />
      <path
         sodipodi:type="arc"
         style="fill:url(#radialGradient1433);fill-opacity:1;stroke:none"
         id="path4696"
         sodipodi:cx="9.5901356"
         sodipodi:cy="27.626486"
         sodipodi:rx="1.281631"
         sodipodi:ry="1.281631"
         d="m 10.871767,27.626486 c 0,0.707825 -0.573806,1.281631 -1.2816314,1.281631 -0.7078253,0 -1.281631,-0.573806 -1.281631,-1.281631 0,-0.707825 0.5738057,-1.281631 1.281631,-1.281631 0.7078254,0 1.2816314,0.573806 1.2816314,1.281631 z"
         transform="translate(0,2)" />
      <path
         inkscape:connector-curvature="0"
         style="opacity:0.36571428;fill:url(#linearGradient1447);fill-opacity:1;fill-rule:evenodd;stroke:none"
         d="m 11.743718,25.416053 25.5625,0.0625 c 0.687498,0.0017 0.98782,-0.370995 0.9375,-1 l -0.125,-1.5625 1.866117,0 c 0.8125,0 0.9902,0.192563 1.1875,0.5625 l 0.5,0.9375 c 0.526795,0.98774 1.811173,1.974112 0.49816,1.974112 -4.502711,0 -28.176777,-0.349112 -30.426777,-0.974112 z"
         id="path4731"
         sodipodi:nodetypes="csscssssc" />
      <path
         inkscape:connector-curvature="0"
         sodipodi:nodetypes="cc"
         id="path4760"
         d="m 42.9375,26.5 -38.125,0"
         style="fill:none;stroke:#ffffff;stroke-width:1px;stroke-linecap:round;stroke-linejoin:round;stroke-opacity:1" />
      <g
         id="g4849"
         style="opacity:0.43575416"
         transform="translate(0,2)">
        <rect
           y="5"
           x="14"
           height="1"
           width="19"
           id="rect4831"
           style="color:#000000;fill:#000000;fill-opacity:0.29239765;fill-rule:nonzero;stroke:none;stroke-width:1;marker:none;visibility:visible;display:inline;overflow:visible" />
        <rect
           style="color:#000000;fill:#000000;fill-opacity:0.29239765;fill-rule:nonzero;stroke:none;stroke-width:1;marker:none;visibility:visible;display:inline;overflow:visible"
           id="rect4833"
           width="19"
           height="1"
           x="14"
           y="7" />
        <rect
           y="9"
           x="14"
           height="1"
           width="19"
           id="rect4835"
           style="color:#000000;fill:#000000;fill-opacity:0.29239765;fill-rule:nonzero;stroke:none;stroke-width:1;marker:none;visibility:visible;display:inline;overflow:visible" />
        <rect
           style="color:#000000;fill:#000000;fill-opacity:0.29239765;fill-rule:nonzero;stroke:none;stroke-width:1;marker:none;visibility:visible;display:inline;overflow:visible"
           id="rect4837"
           width="19"
           height="1"
           x="14"
           y="11" />
        <rect
           y="13"
           x="14"
           height="1"
           width="11"
           id="rect4839"
           style="color:#000000;fill:#000000;fill-opacity:0.29239765;fill-rule:nonzero;stroke:none;stroke-width:1;marker:none;visibility:visible;display:inline;overflow:visible" />
      </g>
    </g>
    <g
       transform="matrix(0.70225798,0,0,0.70225798,16.081988,17.629592)"
       id="g1772">
      <path
         inkscape:connector-curvature="0"
         sodipodi:nodetypes="csscccscccscczzzz"
         id="path2844"
         d="m 18.627569,3.1435548 c -8.13913,0 -14.7448008,6.6056711 -14.7448008,14.7448012 0,8.13913 6.6056708,14.744802 14.7448008,14.744802 3.479555,0 6.551001,-1.384393 9.073723,-3.402647 -0.205377,1.006881 -0.07803,2.035368 0.756144,2.759925 l 10.964084,9.52741 c 1.233416,1.071329 3.087462,0.93096 4.15879,-0.302457 1.071328,-1.233418 0.930959,-3.087462 -0.302457,-4.15879 L 32.313769,27.529188 c -0.671527,-0.583279 -1.492878,-0.755969 -2.306238,-0.642722 1.9867,-2.512422 3.364839,-5.548803 3.364839,-8.99811 0,-8.1391301 -6.605671,-14.7448012 -14.744801,-14.7448012 z m -0.07562,1.2261833 c 7.639459,0 13.291775,4.7889505 13.291775,13.2917749 0,8.675113 -5.81669,13.291775 -13.291775,13.291775 -7.302949,0 -13.2917734,-5.478092 -13.2917734,-13.291775 0,-7.9841069 5.8246384,-13.291775 13.2917734,-13.2917749 z"
         style="color:#000000;fill:#dcdcdc;fill-opacity:1;fill-rule:evenodd;stroke:url(#linearGradient2852);stroke-width:2.00000095;stroke-linecap:round;stroke-linejoin:miter;stroke-miterlimit:10;stroke-opacity:1;stroke-dasharray:none;stroke-dashoffset:0;marker:none;visibility:visible;display:inline;overflow:visible" />
      <path
         inkscape:connector-curvature="0"
         style="color:#000000;fill:#dcdcdc;fill-opacity:1;fill-rule:evenodd;stroke:none;stroke-width:1.00000036;marker:none;visibility:visible;display:inline;overflow:visible"
         d="m 18.602905,3.0803551 c -8.16544,0 -14.7924642,6.627024 -14.7924642,14.7924639 0,8.16544 6.6270242,14.792464 14.7924642,14.792464 3.490803,0 6.572177,-1.388867 9.103055,-3.413645 -0.206041,1.010136 -0.07829,2.041947 0.758587,2.768846 l 10.999526,9.558207 c 1.237403,1.074792 3.097442,0.93397 4.172233,-0.303435 1.074791,-1.237404 0.933968,-3.097442 -0.303435,-4.172233 L 32.333346,27.544815 c -0.673698,-0.585164 -1.497704,-0.758413 -2.313693,-0.644799 1.993122,-2.520544 3.375716,-5.56674 3.375716,-9.027197 0,-8.1654399 -6.627024,-14.7924639 -14.792464,-14.7924639 z m -0.07586,3.1860692 c 6.281108,2e-7 11.378818,5.0977107 11.378818,11.3788187 0,6.281108 -5.09771,11.378818 -11.378818,11.378818 -6.281108,0 -11.3788184,-5.09771 -11.3788184,-11.378818 2e-7,-6.281108 5.0977104,-11.3788187 11.3788184,-11.3788187 z"
         id="path4430" />
      <path
         inkscape:connector-curvature="0"
         style="color:#000000;fill:url(#linearGradient4446);fill-opacity:1;fill-rule:evenodd;stroke:none;stroke-width:1;marker:none;visibility:visible;display:inline;overflow:visible"
         d="m 39.507004,41.57769 c -0.478672,-2.273187 1.39733,-4.811422 3.584053,-4.788375 0,0 -10.760367,-9.258111 -10.760367,-9.258111 -2.944791,-0.05671 -4.269502,2.272616 -3.776814,4.599922 l 10.953128,9.446564 z"
         id="path4438"
         sodipodi:nodetypes="ccccc" />
      <path
         sodipodi:type="arc"
         style="color:#000000;fill:none;stroke:url(#linearGradient2372);stroke-width:0.8027336;stroke-linecap:round;stroke-linejoin:miter;stroke-miterlimit:10;stroke-opacity:1;stroke-dasharray:none;stroke-dashoffset:0;marker:none;visibility:visible;display:inline;overflow:visible"
         id="path4450"
         sodipodi:cx="17.500893"
         sodipodi:cy="18.920233"
         sodipodi:rx="11.048544"
         sodipodi:ry="11.048544"
         d="m 28.549437,18.920233 c 0,6.101942 -4.946602,11.048544 -11.048544,11.048544 -6.101943,0 -11.0485443,-4.946602 -11.0485443,-11.048544 0,-6.101943 4.9466013,-11.0485442 11.0485443,-11.0485442 6.101942,0 11.048544,4.9466012 11.048544,11.0485442 z"
         transform="matrix(1.245743,0,0,1.245743,-3.425346,-6.177033)" />
      <rect
         style="opacity:0.43315507;color:#000000;fill:none;stroke:#ffffff;stroke-width:1.00003111;stroke-linecap:round;stroke-linejoin:miter;stroke-miterlimit:10;stroke-opacity:1;stroke-dasharray:none;stroke-dashoffset:0;marker:none;visibility:visible;display:inline;overflow:visible"
         id="rect4495"
         width="19.048439"
         height="4.4404783"
         x="40.373337"
         y="0.14086054"
         rx="2.1366608"
         ry="1.8879365"
         transform="matrix(0.752986,0.658037,-0.648902,0.760872,0,0)" />
      <path
         sodipodi:type="arc"
         style="color:#000000;fill:url(#radialGradient4460);fill-opacity:1;fill-rule:evenodd;stroke:#3063a3;stroke-width:0.71499395;stroke-linecap:round;stroke-linejoin:miter;stroke-miterlimit:10;stroke-opacity:1;stroke-dashoffset:0;marker:none;visibility:visible"
         id="path4452"
         sodipodi:cx="17.589281"
         sodipodi:cy="18.478292"
         sodipodi:rx="8.3085051"
         sodipodi:ry="8.3085051"
         d="m 25.897786,18.478292 c 0,4.588661 -3.719844,8.308506 -8.308505,8.308506 -4.588661,0 -8.308505,-3.719845 -8.308505,-8.308506 0,-4.58866 3.719844,-8.308505 8.308505,-8.308505 4.588661,0 8.308505,3.719845 8.308505,8.308505 z"
         transform="matrix(1.398614,0,0,1.398614,-6.224338,-8.298958)" />
      <path
         inkscape:connector-curvature="0"
         style="opacity:0.83422457;color:#000000;fill:url(#radialGradient3501);fill-opacity:1;fill-rule:evenodd;stroke:none;stroke-width:1;marker:none;visibility:visible;display:inline;overflow:visible"
         d="m 18.156915,7.3966938 c -5.20759,0 -9.4245469,4.2169572 -9.4245469,9.4245472 0,1.503975 0.4203072,2.887773 1.0471719,4.149903 1.25238,0.461613 2.582757,0.775683 3.994767,0.775683 6.170955,0 11.099282,-4.861637 11.480106,-10.937129 C 23.523449,8.7641668 21.044374,7.3966938 18.156915,7.3966938 z"
         id="path4462" />
    </g>
  </g>
</svg>
