<svg height="48" id="svg249" version="1.1" width="48" xmlns="http://www.w3.org/2000/svg" xmlns:xlink="http://www.w3.org/1999/xlink">
<defs id="defs3">
<linearGradient gradientUnits="userSpaceOnUse" id="linearGradient7648" x1="21.9326" x2="21.9326" y1="24.6274" y2="7.1091">
<stop id="stop7650" offset="0" style="stop-color:#8595bc"/>
<stop id="stop7652" offset="1" style="stop-color:#041a3b"/>
</linearGradient>
<linearGradient id="linearGradient15662">
<stop id="stop15664" offset="0" style="stop-color:#fff"/>
<stop id="stop15666" offset="1" style="stop-color:#f8f8f8"/>
</linearGradient>
<linearGradient id="linearGradient269">
<stop id="stop270" offset="0" style="stop-color:#a3a3a3"/>
<stop id="stop271" offset="1" style="stop-color:#4c4c4c"/>
</linearGradient>
<linearGradient id="linearGradient259">
<stop id="stop260" offset="0" style="stop-color:#fafafa"/>
<stop id="stop261" offset="1" style="stop-color:#bbb"/>
</linearGradient>
<linearGradient id="linearGradient2846">
<stop id="stop2848" offset="0" style="stop-color:#8a8a8a"/>
<stop id="stop2850" offset="1" style="stop-color:#484848"/>
</linearGradient>
<linearGradient id="linearGradient4440">
<stop id="stop4442" offset="0" style="stop-color:#7d7d7d"/>
<stop id="stop4448" offset=".5" style="stop-color:#b1b1b1"/>
<stop id="stop4444" offset="1" style="stop-color:#686868"/>
</linearGradient>
<linearGradient id="linearGradient2366">
<stop id="stop2368" offset="0" style="stop-color:#fff"/>
<stop id="stop2374" offset=".5" style="stop-opacity:.219;stop-color:#fff"/>
<stop id="stop2370" offset="1" style="stop-color:#fff"/>
</linearGradient>
<linearGradient id="linearGradient4454">
<stop id="stop4456" offset="0" style="stop-opacity:.208;stop-color:#729fcf"/>
<stop id="stop4458" offset="1" style="stop-opacity:.676;stop-color:#729fcf"/>
</linearGradient>
<linearGradient id="linearGradient4467">
<stop id="stop4469" offset="0" style="stop-color:#fff"/>
<stop id="stop4471" offset="1" style="stop-opacity:.248;stop-color:#fff"/>
</linearGradient>
<linearGradient id="linearGradient5048-1">
<stop id="stop5050-8" offset="0" style="stop-opacity:0"/>
<stop id="stop5056-7" offset=".5"/>
<stop id="stop5052-9" offset="1" style="stop-opacity:0"/>
</linearGradient>
<linearGradient id="linearGradient5060-2">
<stop id="stop5062-0" offset="0"/>
<stop id="stop5064-2" offset="1" style="stop-opacity:0"/>
</linearGradient>
<linearGradient id="linearGradient4668">
<stop id="stop4670" offset="0" style="stop-color:#8e8d87"/>
<stop id="stop4676" offset=".276" style="stop-color:#cbc9c1"/>
<stop id="stop4672" offset="1" style="stop-color:#8e8d87"/>
</linearGradient>
<linearGradient id="linearGradient4741">
<stop id="stop4743" offset="0" style="stop-color:#dcdcda"/>
<stop id="stop4745" offset="1" style="stop-color:#bab9b7"/>
</linearGradient>
<linearGradient id="linearGradient4762">
<stop id="stop4764" offset="0" style="stop-opacity:.124;stop-color:#fff"/>
<stop id="stop4768" offset=".103" style="stop-color:#fff"/>
<stop id="stop4766" offset="1" style="stop-opacity:0;stop-color:#fff"/>
</linearGradient>
<linearGradient id="linearGradient259-3">
<stop id="stop260-7" offset="0" style="stop-color:#e0e0e0"/>
<stop id="stop4886" offset=".405" style="stop-color:#fff"/>
<stop id="stop4884" offset=".534" style="stop-color:#cdcdcd"/>
<stop id="stop261-5" offset="1" style="stop-color:#494949"/>
</linearGradient>
<linearGradient id="linearGradient15662-9">
<stop id="stop15664-2" offset="0" style="stop-opacity:0;stop-color:#fff"/>
<stop id="stop15666-2" offset="1" style="stop-color:#f8f8f8"/>
</linearGradient>
<linearGradient id="linearGradient4680">
<stop id="stop4682" offset="0" style="stop-color:#f7f6f5"/>
<stop id="stop4684" offset="1" style="stop-opacity:0;stop-color:#f7f6f5"/>
</linearGradient>
<linearGradient id="linearGradient4688">
<stop id="stop4690" offset="0" style="stop-color:#666"/>
<stop id="stop4692" offset="1" style="stop-opacity:0"/>
</linearGradient>
<linearGradient id="linearGradient4698">
<stop id="stop4700" offset="0" style="stop-color:#fffffd"/>
<stop id="stop4706" offset=".5" style="stop-color:#bbbbb9"/>
<stop id="stop4702" offset="1"/>
</linearGradient>
<linearGradient id="linearGradient4733">
<stop id="stop4735" offset="0" style="stop-opacity:.237"/>
<stop id="stop4737" offset="1" style="stop-opacity:0"/>
</linearGradient>
<linearGradient gradientTransform="matrix(1.09899,0,0,-.79776,-1.95386,37.324)" gradientUnits="userSpaceOnUse" id="linearGradient7671" x1="21.9326" x2="21.9326" xlink:href="#linearGradient7648" y1="24.6274" y2="7.1091"/>
<linearGradient gradientUnits="userSpaceOnUse" id="linearGradient2852" x1="27.3663" x2="31.336" xlink:href="#linearGradient2846" y1="26.5803" y2="30.5578"/>
<linearGradient gradientTransform="matrix(1.33459,0,0,1.29129,-6.97384,-7.46066)" gradientUnits="userSpaceOnUse" id="linearGradient4446" x1="30.6562" x2="33.2188" xlink:href="#linearGradient4440" y1="34" y2="31.0625"/>
<linearGradient gradientUnits="userSpaceOnUse" id="linearGradient2372" x1="18.2927" x2="17.5009" xlink:href="#linearGradient2366" y1="13.6021" y2="25.7435"/>
<linearGradient gradientTransform="matrix(2.77439,0,0,1.96971,-1892.179,-872.8854)" gradientUnits="userSpaceOnUse" id="linearGradient5027" x1="302.8571" x2="302.8571" xlink:href="#linearGradient5048-1" y1="366.6479" y2="609.5051"/>
<linearGradient gradientTransform="matrix(2.30272,0,0,.43792,0,.58403)" gradientUnits="userSpaceOnUse" id="linearGradient1471" x1="1.8456" x2="18.9721" xlink:href="#linearGradient4668" y1="88.2949" y2="88.2949"/>
<linearGradient gradientTransform="matrix(2.29182,0,0,.43427,.08855,2)" gradientUnits="userSpaceOnUse" id="linearGradient1468" x1="1.8456" x2="18.9721" xlink:href="#linearGradient4741" y1="88.2949" y2="88.2949"/>
<linearGradient gradientTransform="matrix(1.49016,0,0,.66874,.08895,2)" gradientUnits="userSpaceOnUse" id="linearGradient1464" x1="15.388" x2="15.4878" xlink:href="#linearGradient4762" y1="32.5392" y2="58.8313"/>
<linearGradient gradientTransform="matrix(.94494,0,0,1.07615,.06845,4.09318)" gradientUnits="userSpaceOnUse" id="linearGradient1459" x1="25.0567" x2="24.7897" xlink:href="#linearGradient259-3" y1="3.6785" y2="25.2473"/>
<linearGradient gradientTransform="matrix(1.19877,0,0,.85357,-.14309,2.03451)" gradientUnits="userSpaceOnUse" id="linearGradient1456" x1="20.7712" x2="20.7178" xlink:href="#linearGradient15662-9" y1="25.1403" y2="19.3375"/>
<linearGradient gradientTransform="matrix(2.36984,0,0,.42197,0,2)" gradientUnits="userSpaceOnUse" id="linearGradient1451" x1="10.3382" x2="10.3382" xlink:href="#linearGradient4680" y1="64.6523" y2="54.1361"/>
<linearGradient gradientTransform="matrix(2.36984,0,0,.42197,0,2)" gradientUnits="userSpaceOnUse" id="linearGradient1453" x1="9.7317" x2="9.7053" xlink:href="#linearGradient4688" y1="70.725" y2="62.2825"/>
<linearGradient gradientTransform="matrix(2.77209,0,0,.36074,.61872,2.88388)" gradientUnits="userSpaceOnUse" id="linearGradient1447" x1="9.8698" x2="9.9128" xlink:href="#linearGradient4733" y1="57.2276" y2="72.0643"/>
<radialGradient cx="20.8921" cy="64.5679" fx="20.8921" fy="64.5679" gradientUnits="userSpaceOnUse" id="aigrd3" r="5.257">
<stop id="stop15573" offset="0" style="stop-color:#f0f0f0"/>
<stop id="stop15575" offset="1" style="stop-color:#9a9a9a"/>
</radialGradient>
<radialGradient cx="20.8921" cy="114.5684" fx="20.8921" fy="114.5684" gradientUnits="userSpaceOnUse" id="aigrd2" r="5.256">
<stop id="stop15566" offset="0" style="stop-color:#f0f0f0"/>
<stop id="stop15568" offset="1" style="stop-color:#9a9a9a"/>
</radialGradient>
<radialGradient cx="8.8244" cy="3.7561" fx="8.8244" fy="3.7561" gradientTransform="matrix(.96827,0,0,1.03277,3.35355,.64645)" gradientUnits="userSpaceOnUse" id="radialGradient15656" r="37.7517" xlink:href="#linearGradient269"/>
<radialGradient cx="33.9667" cy="35.7369" fx="33.9667" fy="35.7369" gradientTransform="scale(.96,1.041)" gradientUnits="userSpaceOnUse" id="radialGradient15658" r="86.7084" xlink:href="#linearGradient259"/>
<radialGradient cx="8.1436" cy="7.2679" fx="8.1436" fy="7.2679" gradientTransform="matrix(.96827,0,0,1.03277,3.35355,.64645)" gradientUnits="userSpaceOnUse" id="radialGradient15668" r="38.1587" xlink:href="#linearGradient15662"/>
<radialGradient cx="20.8921" cy="114.5684" fx="20.8921" fy="114.5684" gradientTransform="matrix(.2297,0,0,.2297,4.61353,3.97981)" gradientUnits="userSpaceOnUse" id="radialGradient2283" r="5.256" xlink:href="#aigrd2"/>
<radialGradient cx="20.8921" cy="64.5679" fx="20.8921" fy="64.5679" gradientTransform="matrix(.2297,0,0,.2297,4.61353,3.97981)" gradientUnits="userSpaceOnUse" id="radialGradient2285" r="5.257" xlink:href="#aigrd3"/>
<radialGradient cx="18.2409" cy="21.818" fx="18.2409" fy="21.818" gradientUnits="userSpaceOnUse" id="radialGradient4460" r="8.3085" xlink:href="#linearGradient4454"/>
<radialGradient cx="15.4144" cy="13.0784" fx="15.4144" fy="13.0784" gradientTransform="matrix(2.59296,0,0,2.2521,-25.05975,-18.941)" gradientUnits="userSpaceOnUse" id="radialGradient3501" r="6.6562" xlink:href="#linearGradient4467"/>
<radialGradient cx="605.7143" cy="486.6479" fx="605.7143" fy="486.6479" gradientTransform="matrix(2.77439,0,0,1.96971,-1891.633,-872.8854)" gradientUnits="userSpaceOnUse" id="radialGradient5029" r="117.1429" xlink:href="#linearGradient5060-2"/>
<radialGradient cx="605.7143" cy="486.6479" fx="605.7143" fy="486.6479" gradientTransform="matrix(-2.77439,0,0,1.96971,112.7623,-872.8854)" gradientUnits="userSpaceOnUse" id="radialGradient5031" r="117.1429" xlink:href="#linearGradient5060-2"/>
<radialGradient cx="9.1295" cy="26.9256" fx="9.1295" fy="26.9256" gradientUnits="userSpaceOnUse" id="radialGradient1433" r="2.1227" xlink:href="#linearGradient4698"/>
</defs>
<rect height="40.9205" id="rect15391" rx="1.149" style="display:block;stroke-linejoin:round;fill:url(#radialGradient15658);stroke-linecap:round;stroke:url(#radialGradient15656)" width="34.875" x="6.6036" y="3.6464"/>
<rect height="38.9464" id="rect15660" rx=".149" style="display:block;stroke-linejoin:round;fill:none;stroke-linecap:round;stroke:url(#radialGradient15668)" width="32.7759" x="7.6661" y="4.5839"/>
<g id="g2270" transform="translate(.6464,-3.798933e-2)">
<g id="g1440" style="fill:#fff;stroke:#000" transform="matrix(.2297,0,0,.2297,4.96708,4.24497)">
<path d="M23.428,113.07C23.428,115.043 21.828,116.642 19.855,116.642C17.881,116.642 16.282,115.042 16.282,113.07C16.282,111.096 17.882,109.497 19.855,109.497C21.828,109.497 23.428,111.097 23.428,113.07z" id="path1448" style="stroke:none"/>
<path d="M23.428,63.07C23.428,65.043 21.828,66.643 19.855,66.643C17.881,66.643 16.282,65.043 16.282,63.07C16.282,61.096 17.882,59.497 19.855,59.497C21.828,59.497 23.428,61.097 23.428,63.07z" id="path1456" style="stroke:none"/>
</g>
<path d="M9.995,29.9523C9.995,30.4055 9.6275,30.7728 9.1743,30.7728C8.7208,30.7728 8.3536,30.4053 8.3536,29.9523C8.3536,29.4989 8.7211,29.1316 9.1743,29.1316C9.6275,29.1316 9.995,29.4991 9.995,29.9523z" id="path15570" style="fill:url(#radialGradient2283)"/>
<path d="M9.995,18.4672C9.995,18.9204 9.6275,19.2879 9.1743,19.2879C8.7208,19.2879 8.3536,18.9204 8.3536,18.4672C8.3536,18.0137 8.7211,17.6464 9.1743,17.6464C9.6275,17.6464 9.995,18.014 9.995,18.4672z" id="path15577" style="fill:url(#radialGradient2285)"/>
</g>
<path d="M11.5057,5.4943L11.5057,43.4009" id="path15672" style="stroke:#000;stroke-opacity:.018;fill:none;stroke-width:.9886"/>
<path d="M12.5,5.0205L12.5,43.0382" id="path15674" style="stroke:#fff;stroke-opacity:.205;fill:none"/>
<rect height="1" id="rect15742" rx=".1378" ry=".0654" style="fill-opacity:.55;display:block;fill:#9b9b9b" width="20" x="16" y="35"/>
<rect height="1" id="rect15738" rx=".1378" ry=".0654" style="fill-opacity:.55;display:block;fill:#9b9b9b" width="20" x="16" y="31"/>
<rect height="1" id="rect15740" rx=".1378" ry=".0654" style="fill-opacity:.55;display:block;fill:#9b9b9b" width="20" x="16" y="33"/>
<rect height="1" id="rect15744" rx=".0965" ry=".0654" style="fill-opacity:.55;display:block;fill:#9b9b9b" width="14" x="16" y="37"/>
<g id="g5376" style="opacity:.665">
<g id="g7654" transform="matrix(.60898,0,0,.60622,12.8233,10.5572)">
<path d="M5.5127,30L39.6432,30L39.6432,19.6274L5.5127,19.6274L5.5127,30z" id="path7644" style="fill:url(#linearGradient7671)"/>
<path d="M5.5127,5.6791L39.6432,5.6791L39.6432,19.6274L5.5127,19.6274L5.5127,5.6791z" id="path16203" style="fill:#729fcf"/>
<g id="g16205" style="stroke:#000;stroke-width:2.0024" transform="matrix(1.18922,0,0,1.18922,-3.52536,-6.53541)">
<path d="M18.4,15.4C18.4,17.6 16.6,19.5 14.3,19.5C12.1,19.5 10.2,17.7 10.2,15.4C10.2,13.2 12,11.3 14.3,11.3C16.5,11.3 18.4,13.1 18.4,15.4z" id="path16209" style="opacity:.05;fill:#e8f52f;stroke:none"/>
<path d="M18,15.4C18,17.4 16.4,19.1 14.3,19.1C12.3,19.1 10.6,17.5 10.6,15.4C10.6,13.4 12.2,11.7 14.3,11.7C16.3,11.7 18,13.3 18,15.4L18,15.4z" id="path16211" style="opacity:.208;fill:#ecf751;stroke:none"/>
<path d="M17.6,15.4C17.6,17.2 16.1,18.7 14.3,18.7C12.5,18.7 11,17.2 11,15.4C11,13.6 12.5,12.1 14.3,12.1C16.1,12.1 17.6,13.6 17.6,15.4L17.6,15.4z" id="path16213" style="opacity:.367;fill:#f0f972;stroke:none"/>
<path d="M17.2,15.4C17.2,17 15.9,18.3 14.3,18.3C12.7,18.3 11.4,17 11.4,15.4C11.4,13.8 12.7,12.5 14.3,12.5C15.9,12.5 17.2,13.8 17.2,15.4z" id="path16215" style="opacity:.525;fill:#f4fa95;stroke:none"/>
<path d="M16.8,15.4C16.8,16.8 15.7,17.9 14.3,17.9C12.9,17.9 11.8,16.8 11.8,15.4C11.8,14 12.9,12.9 14.3,12.9C15.7,12.9 16.8,14 16.8,15.4L16.8,15.4z" id="path16217" style="opacity:.683;fill:#f7fcb7;stroke:none"/>
<path d="M16.4,15.4C16.4,16.6 15.4,17.5 14.3,17.5C13.2,17.5 12.2,16.5 12.2,15.4C12.2,14.3 13.2,13.3 14.3,13.3C15.4,13.3 16.4,14.3 16.4,15.4z" id="path16219" style="opacity:.842;fill:#fbfddb;stroke:none"/>
<path d="M16,15.4C16,16.4 15.2,17.2 14.2,17.2C13.2,17.2 12.4,16.4 12.4,15.4C12.4,14.4 13.2,13.6 14.2,13.6C15.2,13.6 16,14.4 16,15.4L16,15.4z" id="path16221" style="fill:#fff;stroke:none"/>
</g>
<path d="M25.0159,21.649L33.6971,21.649L35.3621,22.1247L32.5079,22.1247C32.5079,22.1247 35.3621,22.3626 36.7891,24.1464C38.2162,25.8113 35.1242,27.833 35.1242,27.833C35.1242,27.833 35.1242,27.833 35.1242,27.833C35.0053,27.4762 34.2918,24.6221 32.8647,23.4329C31.7944,22.4815 30.6052,22.2437 30.6052,22.2437L25.0159,22.2437L25.0159,21.768L25.0159,21.649z" id="path16223" style="opacity:.3"/>
<path d="M30.7241,22.3626L25.7294,22.3626L35.0053,27.5951L30.7241,22.3626L30.7241,22.3626z" id="path16225" style="opacity:.3"/>
<path d="M25.0159,21.768L33.6971,21.768L35.0053,20.9355L32.1512,20.9355C32.1512,20.9355 34.7674,20.4598 35.1242,17.4868C35.481,14.5137 31.0809,11.1839 31.0809,11.1839C31.0809,11.1839 31.0809,11.1839 31.0809,11.3029C31.1998,12.0164 32.389,17.0111 31.5566,18.9138C31.1998,20.5787 30.1295,20.9355 30.1295,20.9355L24.6591,20.9355L24.8969,21.768L25.0159,21.768z" id="path16227" style="fill:#515151"/>
<path d="M30.2484,20.4598L25.2537,20.4598L31.1998,11.4218L30.2484,20.4598z" id="path16229" style="fill:#515151"/>
</g>
<rect height="13.9975" id="rect8163" style="fill:none;stroke:#9e9e9e" width="19.9955" x="16.5085" y="14.4858"/>
</g>
<rect height="1" id="rect1768" rx=".1378" ry=".0654" style="fill-opacity:.55;display:block;fill:#9b9b9b" width="20" x="16" y="9"/>
<rect height="1" id="rect1770" rx=".0965" ry=".0654" style="fill-opacity:.55;display:block;fill:#9b9b9b" width="14" x="16" y="11"/>
<g id="g3589" transform="matrix(.36211,0,0,.36211,11.44227,31.05838)">
<g id="g5022" transform="matrix(.02411,0,0,.01929,45.48953,39.75228)">
<rect height="478.3572" id="rect4173" style="opacity:.402;fill:url(#linearGradient5027)" width="1339.6335" x="-1559.2523" y="-150.6969"/>
<path d="m-219.6188,-150.6804c0,0 0,478.3308 0,478.3308 142.8742,.9004 345.4002,-107.1697 345.4001,-239.1962 0,-132.0265 -159.4368,-239.1346 -345.4001,-239.1346z" id="path5058" style="opacity:.402;fill:url(#radialGradient5029)"/>
<path d="m-1559.2523,-150.6804c0,0 0,478.3308 0,478.3308 -142.8742,.9004 -345.4002,-107.1697 -345.4002,-239.1962 0,-132.0265 159.4368,-239.1346 345.4002,-239.1346z" id="path5018" style="opacity:.402;fill:url(#radialGradient5031)"/>
</g>
<rect height="6.4916" id="rect4652" rx="1.7115" ry="1.7115" style="stroke:#595959;fill:url(#linearGradient1471)" width="38.4375" x="4.75" y="36.0042"/>
<path d="m7.1309,21.5 33.7397,0c.385,0 .877,.2882 1.1804,.7239 .3034,.4358 1.7365,2.61 2.0584,3.074 .3219,.464 .3929,.9039 .3929,1.4761l0,12.0769c0,.9136 -.732,1.649 -1.6412,1.649l-37.7208,0c-.9093,0 -1.6412,-.7355 -1.6412,-1.649l0,-12.0769c0,-.494 .1012,-1.2024 .4464,-1.6533 .4356,-.569 1.6043,-2.5479 1.9126,-2.9676C6.1664,21.7335 6.7324,21.5 7.1309,21.5z" id="rect4609" style="fill:url(#linearGradient1468);stroke:#676767"/>
<path d="m7.7053,21.9755c-.498,0 -1.1383,.1318 -1.4009,.5357l-1.8387,2.8284c-.296,.4553 .0336,1.5285 .9243,1.5285l37.2885,0c1.2047,0 1.2082,-1.0101 .9243,-1.4401l-1.7511,-2.6517c-.3175,-.4808 -.4328,-.8009 -1.2258,-.8009l-32.9207,0z" id="path4718" style="fill:#fbfbfb;fill-rule:evenodd"/>
<path d="m7.6003,22.4458 32.7744,0c.3651,0 .8316,.2729 1.1193,.6855 .2877,.4127 1.2941,2.0297 1.5994,2.4691 .3052,.4394 .4349,.856 .4349,1.3978l0,11.2811c0,.8651 -.1335,1.2491 -.9956,1.2491l-37.002,0c-.8621,0 -1.0579,-.384 -1.0579,-1.2491l0,-11.2811c0,-.4678 .2205,-1.1386 .5478,-1.5656 .4131,-.5388 1.0808,-1.9709 1.3731,-2.3683 .2923,-.3974 .829,-.6185 1.2068,-.6185z" id="path4750" style="fill:none;stroke-width:.947;stroke:url(#linearGradient1464)"/>
<path d="m11.6818,4.4978 24.6321,0c.6502,0 1.1737,.5102 1.1737,1.1439l0,18.7064 -26.9795,0 0,-18.7064c0,-.6337 .5235,-1.1439 1.1737,-1.1439z" id="rect15391-8" style="display:block;fill:url(#linearGradient1459);stroke-linecap:round;stroke:#898989"/>
<rect height="18.8364" id="rect15660-9" rx=".1768" ry=".1768" style="display:block;stroke-linejoin:round;fill:none;stroke-linecap:round;stroke:url(#linearGradient1456)" width="25.0006" x="11.4985" y="5.4992"/>
<rect height="5.1875" id="rect4678" rx="1.7115" style="stroke:url(#linearGradient1453);fill:url(#linearGradient1451)" width="33.75" x="6.875" y="27.375"/>
<path d="m10.8718,27.6265c0,.7078 -.5738,1.2816 -1.2816,1.2816 -.7078,0 -1.2816,-.5738 -1.2816,-1.2816 0,-.7078 .5738,-1.2816 1.2816,-1.2816 .7078,0 1.2816,.5738 1.2816,1.2816z" id="path4696" style="fill:url(#radialGradient1433)" transform="translate(0,2)"/>
<path d="m11.7437,25.4161 25.5625,.0625c.6875,.0017 .9878,-.371 .9375,-1l-.125,-1.5625 1.8661,0c.8125,0 .9902,.1926 1.1875,.5625l.5,.9375c.5268,.9877 1.8112,1.9741 .4982,1.9741 -4.5027,0 -28.1768,-.3491 -30.4268,-.9741z" id="path4731" style="opacity:.366;fill:url(#linearGradient1447);fill-rule:evenodd"/>
<path d="m42.9375,26.5 -38.125,0" id="path4760" style="stroke:#fff;stroke-linejoin:round;fill:none;stroke-linecap:round"/>
<g id="g4849" style="opacity:.436" transform="translate(0,2)">
<rect height="1" id="rect4831" style="fill-opacity:.292" width="19" x="14" y="5"/>
<rect height="1" id="rect4833" style="fill-opacity:.292" width="19" x="14" y="7"/>
<rect height="1" id="rect4835" style="fill-opacity:.292" width="19" x="14" y="9"/>
<rect height="1" id="rect4837" style="fill-opacity:.292" width="19" x="14" y="11"/>
<rect height="1" id="rect4839" style="fill-opacity:.292" width="11" x="14" y="13"/>
</g>
</g>
<g id="g1772" transform="matrix(.70226,0,0,.70226,16.08199,17.62959)">
<path d="m18.6276,3.1436c-8.1391,0 -14.7448,6.6057 -14.7448,14.7448 0,8.1391 6.6057,14.7448 14.7448,14.7448 3.4796,0 6.551,-1.3844 9.0737,-3.4026 -.2054,1.0069 -.078,2.0354 .7561,2.7599l10.9641,9.5274c1.2334,1.0713 3.0875,.931 4.1588,-.3025 1.0713,-1.2334 .931,-3.0875 -.3025,-4.1588L32.3138,27.5292c-.6715,-.5833 -1.4929,-.756 -2.3062,-.6427 1.9867,-2.5124 3.3648,-5.5488 3.3648,-8.9981 0,-8.1391 -6.6057,-14.7448 -14.7448,-14.7448 z m -.0756,1.2262c7.6395,0 13.2918,4.789 13.2918,13.2918 0,8.6751 -5.8167,13.2918 -13.2918,13.2918 -7.3029,0 -13.2918,-5.4781 -13.2918,-13.2918 0,-7.9841 5.8246,-13.2918 13.2918,-13.2918z" id="path2844" style="fill:#dcdcdc;stroke-width:2;stroke-linecap:round;stroke-miterlimit:10;stroke:url(#linearGradient2852);fill-rule:evenodd"/>
<path d="m18.6029,3.0804c-8.1654,0 -14.7925,6.627 -14.7925,14.7925 0,8.1654 6.627,14.7925 14.7925,14.7925 3.4908,0 6.5722,-1.3889 9.1031,-3.4136 -.206,1.0101 -.0783,2.0419 .7586,2.7688l10.9995,9.5582c1.2374,1.0748 3.0974,.934 4.1722,-.3034 1.0748,-1.2374 .934,-3.0974 -.3034,-4.1722L32.3333,27.5448c-.6737,-.5852 -1.4977,-.7584 -2.3137,-.6448 1.9931,-2.5205 3.3757,-5.5667 3.3757,-9.0272 0,-8.1654 -6.627,-14.7925 -14.7925,-14.7925 z m -.0759,3.1861c6.2811,2e-7 11.3788,5.0977 11.3788,11.3788 0,6.2811 -5.0977,11.3788 -11.3788,11.3788 -6.2811,0 -11.3788,-5.0977 -11.3788,-11.3788 2e-7,-6.2811 5.0977,-11.3788 11.3788,-11.3788z" id="path4430" style="fill:#dcdcdc;fill-rule:evenodd"/>
<path d="m39.507,41.5777c-.4787,-2.2732 1.3973,-4.8114 3.5841,-4.7884 0,0 -10.7604,-9.2581 -10.7604,-9.2581 -2.9448,-.0567 -4.2695,2.2726 -3.7768,4.5999l10.9531,9.4466z" id="path4438" style="fill:url(#linearGradient4446);fill-rule:evenodd"/>
<path d="m28.5494,18.9202c0,6.1019 -4.9466,11.0485 -11.0485,11.0485 -6.1019,0 -11.0485,-4.9466 -11.0485,-11.0485 0,-6.1019 4.9466,-11.0485 11.0485,-11.0485 6.1019,0 11.0485,4.9466 11.0485,11.0485z" id="path4450" style="fill:none;stroke-width:.8027;stroke-linecap:round;stroke-miterlimit:10;stroke:url(#linearGradient2372)" transform="matrix(1.24574,0,0,1.24574,-3.42535,-6.17703)"/>
<rect height="4.4405" id="rect4495" rx="2.1367" ry="1.8879" style="opacity:.433;fill:none;stroke-linecap:round;stroke-miterlimit:10;stroke:#fff" transform="matrix(.75299,.65804,-.6489,.76087,0,0)" width="19.0484" x="40.3733" y=".1409"/>
<path d="m25.8978,18.4783c0,4.5887 -3.7198,8.3085 -8.3085,8.3085 -4.5887,0 -8.3085,-3.7198 -8.3085,-8.3085 0,-4.5887 3.7198,-8.3085 8.3085,-8.3085 4.5887,0 8.3085,3.7198 8.3085,8.3085z" id="path4452" style="fill:url(#radialGradient4460);stroke-width:.715;stroke-linecap:round;stroke-miterlimit:10;stroke:#3063a3;fill-rule:evenodd" transform="matrix(1.39861,0,0,1.39861,-6.22434,-8.29896)"/>
<path d="m18.1569,7.3967c-5.2076,0 -9.4245,4.217 -9.4245,9.4245 0,1.504 .4203,2.8878 1.0472,4.1499 1.2524,.4616 2.5828,.7757 3.9948,.7757 6.171,0 11.0993,-4.8616 11.4801,-10.9371C23.5234,8.7642 21.0444,7.3967 18.1569,7.3967z" id="path4462" style="opacity:.834;fill:url(#radialGradient3501);fill-rule:evenodd"/>
</g>
</svg>
