<svg height="48" id="svg11300" width="48" xmlns="http://www.w3.org/2000/svg" xmlns:xlink="http://www.w3.org/1999/xlink">
<defs id="defs3">
<linearGradient id="linearGradient2690">
<stop id="stop2692" offset="0" style="stop-color:#c4d7eb"/>
<stop id="stop2694" offset="1" style="stop-opacity:0;stop-color:#c4d7eb"/>
</linearGradient>
<linearGradient id="linearGradient2682">
<stop id="stop2684" offset="0" style="stop-color:#3977c3"/>
<stop id="stop2686" offset="1" style="stop-opacity:0;stop-color:#89aedc"/>
</linearGradient>
<linearGradient id="linearGradient2402">
<stop id="stop2404" offset="0" style="stop-color:#729fcf"/>
<stop id="stop2406" offset="1" style="stop-color:#528ac5"/>
</linearGradient>
<linearGradient id="linearGradient2380">
<stop id="stop2382" offset="0" style="stop-color:#b9cfe7"/>
<stop id="stop2384" offset="1" style="stop-color:#729fcf"/>
</linearGradient>
<linearGradient id="linearGradient2871">
<stop id="stop2873" offset="0" style="stop-color:#3465a4"/>
<stop id="stop2875" offset="1" style="stop-color:#3465a4"/>
</linearGradient>
<linearGradient id="linearGradient2847">
<stop id="stop2849" offset="0" style="stop-color:#3465a4"/>
<stop id="stop2851" offset="1" style="stop-opacity:0;stop-color:#3465a4"/>
</linearGradient>
<linearGradient id="linearGradient2831">
<stop id="stop2833" offset="0" style="stop-color:#3465a4"/>
<stop id="stop2855" offset=".333" style="stop-color:#5b86be"/>
<stop id="stop2835" offset="1" style="stop-opacity:0;stop-color:#83a8d8"/>
</linearGradient>
<linearGradient id="linearGradient2797">
<stop id="stop2799" offset="0" style="stop-color:#fff"/>
<stop id="stop2801" offset="1" style="stop-opacity:0;stop-color:#fff"/>
</linearGradient>
<linearGradient id="linearGradient8662">
<stop id="stop8664" offset="0"/>
<stop id="stop8666" offset="1" style="stop-opacity:0"/>
</linearGradient>
<linearGradient gradientTransform="translate(.4654,-.2776)" gradientUnits="userSpaceOnUse" id="linearGradient1486" x1="13.4786" x2="15.4194" xlink:href="#linearGradient2831" y1="10.6122" y2="19.1151"/>
<linearGradient gradientTransform="matrix(-1,0,0,-1,47.52791,45.84741)" gradientUnits="userSpaceOnUse" id="linearGradient1488" x1="37.1281" x2="37.0654" xlink:href="#linearGradient2847" y1="29.7296" y2="26.1941"/>
<linearGradient gradientUnits="userSpaceOnUse" id="linearGradient1491" x1="5.9649" x2="52.8541" xlink:href="#linearGradient2797" y1="26.0482" y2="26.0482"/>
<linearGradient gradientUnits="userSpaceOnUse" id="linearGradient1493" x1="5.9649" x2="52.8541" xlink:href="#linearGradient2797" y1="26.0482" y2="26.0482"/>
<linearGradient gradientUnits="userSpaceOnUse" id="linearGradient1501" x1="46.8348" x2="45.3804" xlink:href="#linearGradient2871" y1="45.2641" y2="50.9397"/>
<linearGradient gradientUnits="userSpaceOnUse" id="linearGradient2386" x1="62.5138" x2="15.9849" xlink:href="#linearGradient2380" y1="36.0612" y2="20.6086"/>
<linearGradient gradientUnits="userSpaceOnUse" id="linearGradient2408" x1="18.9358" x2="53.5886" xlink:href="#linearGradient2402" y1="23.6679" y2="26.6494"/>
<linearGradient gradientUnits="userSpaceOnUse" id="linearGradient2688" x1="36.7138" x2="37.1245" xlink:href="#linearGradient2682" y1="31.456" y2="24.8423"/>
<linearGradient gradientUnits="userSpaceOnUse" id="linearGradient2696" x1="32.648" x2="37.1245" xlink:href="#linearGradient2690" y1="30.7488" y2="24.8423"/>
<radialGradient cx="24.8371" cy="36.4211" fx="24.8371" fy="36.4211" gradientTransform="matrix(1,0,0,.53672,-9.680928e-14,16.87306)" gradientUnits="userSpaceOnUse" id="radialGradient1503" r="15.6447" xlink:href="#linearGradient8662"/>
</defs>
<path d="M40.4819 36.4211A15.6447 8.3969 0 1 1 9.1924,36.4211A15.6447 8.3969 0 1 1 40.4819 36.4211z" id="path8660" style="opacity:.383;fill:url(#radialGradient1503);fill-rule:evenodd" transform="matrix(-1.48974,0,0,-1.00125,61.20865,75.2819)"/>
<path d="M20.1529,10.4099C20.1529,10.4099 11.2154,9.7849 13.9654,20.2849L6.2779,20.2849C6.2779,20.2849 6.7779,8.4099 20.1529,10.4099z" id="path2865" style="display:block;fill:url(#linearGradient1486);stroke:url(#linearGradient1488)"/>
<g id="g1878" style="stroke:#3465a4;fill:url(#linearGradient2386)" transform="matrix(-.57905,-.48923,-.48923,.57905,56.91585,13.37137)">
<path d="M44.3068,50.2297C62.8215,35.8189 49.6646,13.4117 22.4624,12.4977L22.1138,3.1515L7.6245,20.4968L22.7143,33.2192C22.7143,33.2192 22.4624,23.338 22.4624,23.338C41.2922,24.3369 55.444,37.4097 44.3068,50.2297z" id="path1880" style="display:block;fill:url(#linearGradient2386);stroke-width:1.3192;stroke:url(#linearGradient1501)"/>
</g>
<path d="M28.375,33.4375C28.375,33.4375 37.3125,34.0625 34.5625,23.5625L42.3384,23.5625C42.3384,25.0651 41.75,35.4375 28.375,33.4375z" id="path2839" style="display:block;fill:url(#linearGradient2696);stroke:url(#linearGradient2688)"/>
<g id="g2779" style="display:block;fill:url(#linearGradient2408);stroke-width:1.3192;stroke:url(#linearGradient1501)" transform="matrix(.57905,.48923,.48923,-.57905,-7.92102,30.53599)">
<path d="M44.3068,50.2297C62.8215,35.8189 49.6646,13.4117 22.4624,12.4977L22.3994,3.069L7.7939,20.424L22.4624,33.0063C22.4624,33.0063 22.4624,23.338 22.4624,23.338C41.2922,24.3369 55.444,37.4097 44.3068,50.2297z" id="path2781" style="display:block;fill:url(#linearGradient2408);stroke-width:1.3192;stroke:url(#linearGradient1501)"/>
</g>
<path d="M7.0625,38.1875L7.125,23.3125L20.0625,22.9375L15.6736,28.1163L19.5409,30.4895C16.5409,32.7395 14.9913,32.9116 13.9913,35.4741L11.1744,33.3639L7.0625,38.1875z" id="path2791" style="opacity:.272;fill:#fff"/>
<g id="g2793" style="stroke:#fff;opacity:.5;fill:none" transform="matrix(.50854,.42965,.42965,-.50854,-3.97319,30.54119)">
<path d="M51.0903,45.9437C60.2105,30.724 46.6316,12.2011 19.4851,11.9486L19.5135,3.7033L6.5342,19.2966L19.3677,30.2688C19.3677,30.2688 19.4233,21.2619 19.4233,21.2619C36.9511,21.038 54.6185,31.3653 51.0903,45.9437z" id="path2795" style="display:block;fill:none;stroke-width:1.5021;stroke:url(#linearGradient1493)"/>
</g>
<g id="g2805" style="stroke:#fff;opacity:.5;fill:none" transform="matrix(-.50854,-.42965,-.42965,.50854,53.049,13.36548)">
<path d="M51.3899,46.5059C60.5101,31.2862 47.0508,12.4324 19.6285,12.0698L19.3428,4.0507L6.3413,19.3795L19.8091,30.7646C19.8091,30.7646 19.6273,21.3113 19.6273,21.3113C37.8722,21.6933 54.4112,32.2366 51.3899,46.5059z" id="path2807" style="display:block;fill:none;stroke-width:1.5021;stroke:url(#linearGradient1491)"/>
</g>
<path d="M6.8125,16.5C10.4059,6.0587 23.2563,10.3554 27,12C31.1753,12.2115 32.6747,9.165 36,9C21.9503,-.79 7.1875,2.5 6.8125,16.5z" id="path2811" style="opacity:.272;fill:#fff"/>
</svg>
